<?xml version="1.0" encoding="UTF-8"?>
<svg id="Layer_1" xmlns="http://www.w3.org/2000/svg" version="1.1" viewBox="0 0 16 16">
  <!-- Generator: Adobe Illustrator 29.0.0, SVG Export Plug-In . SVG Version: 2.1.0 Build 186)  -->
  <defs>
    <style>
      .st0 {
        fill: #c8ff00;
      }
    </style>
  </defs>
  <rect class="st0" width="16" height="16"/>
  <path d="M4.1,12.44s.14-.03.26-.03c.11.01.2,0,.27,0s.12-.07.15-.16c.02-.08.01-.14-.03-.2-.04-.06-.13-.13-.25-.22-.06-.04-.11-.09-.17-.15-.06-.06-.08-.11-.08-.17,0-.11.06-.18.18-.22.12-.03.29-.05.51-.05.11,0,.22,0,.32-.02.1-.01.16-.04.17-.1.01-.04-.01-.1-.07-.16-.06-.06-.14-.12-.22-.17-.15-.1-.28-.2-.37-.29-.09-.09-.14-.19-.14-.29,0-.12.05-.21.14-.27.09-.06.25-.12.46-.19.19-.07.33-.13.42-.19.09-.06.14-.15.12-.27,0-.1-.05-.17-.15-.22-.1-.05-.25-.1-.46-.14-.35-.09-.63-.2-.82-.32-.19-.13-.29-.35-.29-.67-.01-.32.04-.56.16-.71.12-.15.27-.29.47-.41.11-.08.19-.14.23-.2.04-.06.05-.13.02-.23s-.08-.16-.15-.19c-.07-.03-.16-.04-.28-.04-.06,0-.12,0-.2-.02-.08-.01-.13-.04-.17-.1-.09-.09-.07-.22.04-.41.12-.18.33-.46.65-.84.1-.12.12-.24.07-.35-.05-.11-.16-.25-.32-.41-.18-.2-.31-.37-.39-.51-.08-.14-.12-.3-.12-.47-.01-.22.02-.4.11-.53s.2-.2.36-.2c.08,0,.14.03.19.09.05.06.1.15.14.26.06.12.1.21.15.26.04.05.12.06.22.02.11-.06.2-.21.27-.46.06-.14.1-.25.15-.32.04-.07.11-.1.2-.07.06.01.09.06.1.13.01.08,0,.19-.03.35-.02.17-.03.29-.02.38,0,.09.05.14.14.17.09.02.17,0,.24-.06.07-.06.12-.18.16-.37.08-.59.36-.86.85-.81.32.02.56.16.7.41.15.25.15.55,0,.88-.07.14-.17.25-.3.33-.13.08-.3.14-.5.2-.13.04-.24.09-.31.12-.08.04-.13.09-.15.14-.03.07-.04.13-.02.19.02.06.04.12.06.17.06.11.08.2.07.28-.01.06-.04.12-.1.2-.08.1-.12.2-.12.3,0,.06.02.1.07.13.04.03.12.07.22.1.11.02.19.06.25.11.06.05.07.13.05.24-.01.1-.06.19-.13.27-.08.08-.17.15-.27.23-.14.11-.24.21-.3.29-.06.08-.07.18-.05.29.03.15.12.24.26.26.14.02.29-.03.46-.14.08-.06.13-.13.16-.22.03-.09.06-.22.11-.4.01-.11.03-.2.05-.27.02-.07.06-.12.1-.14.09-.03.22-.04.4-.02.12,0,.23,0,.31,0,.09,0,.18-.04.28-.09.08-.04.14-.11.2-.2.06-.09.12-.22.2-.4.11-.27.22-.46.32-.59.1-.13.26-.17.46-.14.2.03.35.17.46.41.11.24.22.57.31.99.08.35.14.57.2.66.08.11.16.2.25.26.09.06.23.14.41.22.2.1.35.2.45.3.1.1.15.25.15.45,0,.09-.02.17-.07.26s-.14.2-.26.34c-.15.13-.26.26-.32.37-.06.12-.08.25-.06.39.01.1.04.2.1.29.06.09.12.2.18.31.15.19.27.37.34.56.07.18.11.41.11.67,0,.4-.15.72-.44.96-.29.24-.62.44-.99.58-.12.04-.22.12-.3.22-.08.1-.17.25-.28.46-.1.23-.19.39-.28.48-.09.09-.21.11-.36.07-.21-.08-.32-.18-.33-.31-.01-.13.02-.29.1-.49.04-.06.07-.12.09-.18s0-.12-.02-.15c-.03-.02-.07-.02-.12,0-.05.02-.1.05-.16.08-.12.07-.24.12-.36.16-.12.04-.26.05-.41.04-.22-.02-.37-.1-.46-.23s-.15-.33-.21-.6c-.04-.21-.09-.36-.13-.46-.11-.19-.23-.31-.36-.36-.13-.06-.21-.03-.26.07-.02.03-.02.07.02.12.03.04.07.09.12.13.08.09.13.17.17.23s.04.14.03.23c-.01.1-.06.16-.16.17-.09.02-.23.02-.41,0-.14,0-.24,0-.3.02-.06.01-.08.04-.08.1,0,.07.03.11.08.12.06.01.15.02.3.02.13-.01.23-.01.3,0,.07.01.1.05.12.12.01.08-.01.13-.07.17-.06.03-.15.06-.26.07-.04,0-.08,0-.1.02-.02.02-.03.03-.03.04.01.02.05.04.12.07.07.02.14.05.21.08.24.09.43.17.57.25.14.08.21.18.21.31.01.12-.02.22-.09.3-.07.08-.17.12-.29.12-.13,0-.25-.04-.34-.13-.09-.09-.21-.22-.34-.4-.11-.19-.19-.26-.23-.22-.01.01,0,.08.02.2.04.13.07.24.07.32s-.04.14-.13.17c-.12.04-.24,0-.35-.13-.03-.06-.07-.08-.1-.07-.03.02-.07.08-.1.18-.01.1-.04.15-.08.15-.03,0-.07-.02-.1-.06-.03-.04-.07-.08-.1-.12-.07-.11-.12-.17-.17-.17s-.11.07-.2.2c-.06.11-.12.19-.18.25-.07.06-.14.07-.22.05-.09,0-.14-.03-.16-.09-.02-.06-.04-.18-.06-.36,0-.03,0-.07,0-.12,0-.04-.01-.1-.02-.17-.02-.19-.08-.33-.18-.41-.09-.13-.13-.25-.13-.36,0-.1.02-.16.07-.18ZM8.76,11.4s.03-.13.03-.25c.01-.13.03-.22.07-.25.02-.03.05-.07.07-.1.03-.03.06-.06.09-.08.06-.02.11-.05.17-.07.06-.03.13-.05.21-.06.03-.01.05-.02.06-.02,0,0,.02-.01.04-.02.13-.02.25-.05.35-.09.1-.04.16-.1.18-.17.02-.03.01-.08-.03-.13-.04-.06-.09-.1-.15-.15-.18-.17-.25-.3-.22-.41.03-.09.07-.16.12-.22.04-.06.09-.1.13-.15.07-.08.11-.14.14-.19.03-.05.04-.11.02-.19-.01-.11-.04-.19-.1-.25-.06-.06-.15-.11-.3-.17-.19-.08-.33-.17-.41-.27-.09-.1-.11-.27-.07-.51.02-.1.04-.2.05-.31,0-.09-.01-.17-.04-.23-.03-.07-.08-.1-.16-.12-.13-.01-.23,0-.3.05-.07.04-.15.12-.25.22-.1.1-.17.16-.2.18-.06.03-.12.04-.19.02-.07-.02-.14-.04-.19-.07-.08-.04-.14-.07-.2-.07-.06,0-.11.01-.15.06-.08.08-.11.19-.1.35v.09s0,.05-.02.07c-.03.06-.07.11-.1.15-.03.04-.07.08-.12.12-.04.02-.08.05-.12.08-.04.03-.08.09-.12.18-.02.08-.02.2.02.36.01.03.01.06,0,.07,0,.01,0,.03,0,.07.02.03.04.07.04.11,0,.04,0,.07,0,.11-.03.11-.12.23-.25.36-.08.07-.12.12-.13.17-.01.04,0,.1.02.17.04.09.11.15.19.17.08.03.19.04.32.04.06-.01.11-.01.17,0,.06,0,.09.02.12.06.03.03.04.08.02.14-.02.06-.06.12-.12.19-.08.12-.13.23-.15.31-.02.09,0,.17.08.23.04.04.15.09.33.13.13.04.25.09.36.13.02.01.09.07.22.17.09.07.16.11.22.14.06.03.12.02.18,0s.11-.07.13-.12Z"/>
</svg>