<?xml version="1.0" encoding="UTF-8"?><svg id="Layer_1" xmlns="http://www.w3.org/2000/svg" viewBox="0 0 225.93 73.21" preserveAspectRatio="xMinYMin meet"><defs><style>.cls-1{fill:#fff;}.cls-2{fill:#c8ff00;}</style></defs><polygon class="cls-2" points="112.96 .61 128.2 7.44 149.49 2.57 157.01 10.63 182.05 8.25 181.05 16.66 207.13 17.03 197.71 24.87 222.01 27.95 205.19 34.39 225.06 39.85 202.67 44.17 215.97 51.41 190.44 53.16 195.72 61.4 169.8 60.39 166.5 68.73 143.01 65.06 131.48 72.61 112.96 66.67 94.45 72.61 82.92 65.06 59.43 68.73 56.12 60.39 30.21 61.4 35.49 53.16 9.96 51.41 23.26 44.17 .87 39.85 20.74 34.39 3.92 27.95 28.22 24.87 18.8 17.03 44.88 16.66 43.88 8.25 68.92 10.63 76.44 2.57 97.73 7.44 112.96 .61"/><path d="M193.44,35.37c-2.14,0-3.88-1.76-3.88-3.92s1.74-3.88,3.88-3.88,3.9,1.74,3.9,3.88-1.75,3.92-3.9,3.92ZM192.2,33.39c.36.24.79.39,1.24.39s.91-.14,1.27-.39h-.99l-.23-.37v.37h-1.3ZM191.98,29.71c-.5.42-.82,1.05-.82,1.74s.32,1.34.82,1.77v-3.51ZM194.47,31.8c.12.16.26.37.46.66l.31.45c.32-.4.51-.9.51-1.45,0-1.24-1.06-2.29-2.31-2.29-.43,0-.83.12-1.18.34h1.34c.98,0,1.43.66,1.43,1.27,0,.4-.21.81-.57,1.03Z"/><path d="M193.44,27.93c1.94,0,3.54,1.59,3.54,3.52s-1.59,3.55-3.54,3.55-3.52-1.59-3.52-3.55,1.59-3.52,3.52-3.52M193.44,34.14c1.46,0,2.67-1.21,2.67-2.68s-1.21-2.65-2.67-2.65-2.65,1.21-2.65,2.65,1.21,2.68,2.65,2.68M193.61,29.86c.74,0,1.07.44,1.07.91,0,.42-.3.82-.79.82v.1c.18.13.39.45.91,1.22l.08.12h-.96l-.69-1.12h-.1v1.12h-.8v-3.17h1.27M193.13,31.2h.39c.2,0,.32-.15.32-.29,0-.15-.1-.3-.3-.3h-.4v.59M193.44,27.21c-2.34,0-4.24,1.9-4.24,4.24s1.9,4.27,4.24,4.27,4.26-1.92,4.26-4.27-1.91-4.24-4.26-4.24h0ZM191.62,32.07c-.07-.19-.1-.4-.1-.62s.04-.41.1-.61v1.22h0ZM194.96,31.87c.19-.2.33-.44.4-.73.02.1.03.21.03.31,0,.28-.06.55-.17.79-.1-.14-.18-.27-.26-.38h0Z"/><path d="M51.53,52.07c-2.95,0-5.16-1.35-6.14-3.72v3.28h-6.85v-28.78l6.85-.61v9.58c1.1-2.18,3.33-3.42,6.18-3.42,5.48,0,8.89,4.56,8.89,11.9s-3.51,11.77-8.93,11.77ZM49.48,34.51c-1.1,0-2.01.36-2.71,1.07-.91.92-1.4,2.41-1.38,4.19v.84c-.02,1.89.45,3.38,1.37,4.31.68.69,1.58,1.04,2.67,1.04,3.69,0,4.09-4.02,4.09-5.75,0-3.57-1.51-5.7-4.04-5.7Z"/><path d="M44.9,22.79v9.61h.79c.87-2.05,2.88-3.49,5.9-3.49,5.29,0,8.39,4.54,8.39,11.4s-3.23,11.27-8.43,11.27c-3.01,0-5.07-1.44-5.85-3.89h-.79v3.45h-5.85v-27.82l5.85-.52M49.44,46.46c3.06,0,4.59-2.53,4.59-6.25s-1.53-6.2-4.54-6.2-4.63,2.36-4.59,5.77v.83c-.04,3.58,1.66,5.85,4.54,5.85M45.9,21.69l-1.09.1-5.85.52-.91.08v29.74h7.85v-1.96c1.26,1.55,3.22,2.4,5.64,2.4,5.73,0,9.43-4.82,9.43-12.27s-3.68-12.4-9.39-12.4c-2.38,0-4.36.82-5.68,2.3v-8.51h0ZM49.44,45.46c-.95,0-1.73-.3-2.32-.89-.81-.82-1.25-2.22-1.23-3.95v-.84c-.02-1.66.42-3.02,1.23-3.85.6-.61,1.39-.92,2.36-.92,3.2,0,3.54,3.64,3.54,5.2,0,1.96-.47,5.25-3.59,5.25h0Z"/><path d="M70.05,52.07c-5.1,0-8.67-4.91-8.67-11.94s3.65-11.77,8.89-11.77c2.77,0,5.11,1.26,6.31,3.38v-2.94h6.94v22.8h-6.94v-3.28h0c-.94,1.51-2.94,3.76-6.53,3.76ZM72.46,34.56c-2.62,0-4.13,2.05-4.13,5.62s1.54,5.7,4.13,5.7c1.17,0,2.12-.36,2.81-1.06.88-.9,1.34-2.35,1.32-4.2v-1.05c.02-1.71-.41-3.07-1.27-3.93-.7-.71-1.67-1.07-2.86-1.07Z"/><path d="M70.27,28.86c3.06,0,5.11,1.57,6.03,3.41h.79v-2.97h5.94v21.8h-5.94v-3.28h-.79c-.96,1.66-2.88,3.76-6.25,3.76-4.85,0-8.17-4.72-8.17-11.44s3.45-11.27,8.39-11.27M72.46,46.37c3.06,0,4.67-2.23,4.63-5.77v-1.05c.04-3.32-1.57-5.5-4.63-5.5s-4.63,2.36-4.63,6.12,1.66,6.2,4.63,6.2M70.27,27.86c-5.53,0-9.39,5.05-9.39,12.27s3.77,12.44,9.17,12.44c2.91,0,4.84-1.38,6.03-2.75v2.27h7.94v-23.8h-7.94v1.92c-1.4-1.5-3.46-2.36-5.81-2.36h0ZM72.46,45.37c-3.28,0-3.63-3.64-3.63-5.2,0-1.91.47-5.12,3.63-5.12,1.06,0,1.91.31,2.51.92.75.76,1.14,2,1.12,3.57v1.06c.02,1.73-.38,3.06-1.17,3.86-.59.6-1.42.91-2.46.91h0Z"/><path d="M95.17,51.98c-7.07,0-10.81-4.05-10.81-11.73s3.8-11.81,10.98-11.81c6.4,0,9.85,3.4,9.98,9.84v.51s-6.52,0-6.52,0l-.03-.47c-.16-2.86-1.19-4.03-3.56-4.03-2.63,0-3.91,1.95-3.91,5.96,0,5.31,2.21,5.92,3.87,5.92,2.33,0,3.42-1.21,3.65-4.04l.04-.46h6.54l-.04.54c-.45,6.39-3.98,9.77-10.2,9.77Z"/><path d="M95.34,28.95c5.81,0,9.35,2.93,9.48,9.35h-5.55c-.17-3.19-1.49-4.5-4.06-4.5-3.01,0-4.41,2.27-4.41,6.46s1.27,6.42,4.37,6.42c2.53,0,3.89-1.31,4.15-4.5h5.55c-.44,6.16-3.8,9.3-9.7,9.3-6.77,0-10.31-3.84-10.31-11.23s3.54-11.31,10.48-11.31M95.34,27.95c-7.51,0-11.48,4.26-11.48,12.31s4.02,12.23,11.31,12.23c6.43,0,10.23-3.63,10.69-10.23l.08-1.07h-7.54l-.08.92c-.24,2.97-1.44,3.58-3.15,3.58-1.57,0-3.37-.62-3.37-5.42,0-5.46,2.48-5.46,3.41-5.46,1.77,0,2.9.59,3.06,3.55l.05.95h7.51l-.02-1.02c-.14-6.66-3.86-10.33-10.48-10.33h0Z"/><path d="M112.29,51.63c-4.1,0-4.65-2.37-4.65-4.69v-12.39h-1.92v-5.61l8.47-3.07v2.92h5.24v5.76h-4.94v10.25c0,.68.35,1.03,1.03,1.03h3.64v5.8h-6.88Z"/><path d="M113.69,26.59v2.71h5.24v4.76h-4.94v10.75c0,.96.57,1.53,1.53,1.53h3.14v4.8h-6.38c-3.58,0-4.15-1.88-4.15-4.19v-12.89h-1.92v-4.76l7.47-2.71M114.69,25.16l-1.34.49-7.47,2.71-.66.24v6.46h1.92v11.89c0,2.23.53,5.19,5.15,5.19h7.38v-6.8h-4.14c-.41,0-.53-.12-.53-.53v-9.75h4.94v-6.76h-5.24v-3.13h0Z"/><path d="M130.16,52.07c-6.7,0-10.55-4.26-10.55-11.68s3.89-12.03,10.42-12.03c2.85,0,5.27.92,7.01,2.67,2.02,2.03,3.08,5.13,3.05,8.97v2.42h-13.57c.14,2.41,1.35,3.63,3.59,3.63,1.35,0,3.02-.43,3.31-2.45l.06-.43h6.5l-.02.52c-.17,5.17-3.93,8.39-9.8,8.39ZM133.17,38.01c-.14-1.86-.84-3.85-3.14-3.85-2.61,0-3.25,2.22-3.37,3.85h6.51Z"/><path d="M130.02,28.86c5.81,0,9.61,3.93,9.57,11.14v1.92h-13.58c0,3.15,1.57,4.63,4.11,4.63,2.18,0,3.54-1.05,3.8-2.88h5.55c-.17,5.24-4.11,7.91-9.3,7.91-6.16,0-10.05-3.71-10.05-11.18s4.15-11.53,9.92-11.53M126.14,38.51h7.56c-.09-3.15-1.4-4.85-3.67-4.85-2.4,0-3.84,1.7-3.89,4.85M130.02,27.86c-6.73,0-10.92,4.8-10.92,12.53s4.03,12.18,11.05,12.18c6.17,0,10.12-3.4,10.3-8.87l.03-.78h.11v-2.92c.02-3.96-1.08-7.19-3.2-9.32-1.83-1.85-4.38-2.82-7.37-2.82h0ZM127.21,37.51c.21-1.46.91-2.85,2.81-2.85,1.46,0,2.32.96,2.59,2.85h-5.4ZM127.07,42.92h5.94l-.09.61c-.19,1.34-1.14,2.02-2.81,2.02-1.78,0-2.78-.86-3.04-2.63h0Z"/><path d="M141.62,51.63v-22.84h6.5v3.42c.98-2.35,2.91-3.68,5.35-3.68.64,0,1.28.12,2.12.32l.39.09v6.75l-.67-.25c-.8-.29-1.61-.45-2.36-.45-2.89,0-4.48,2.23-4.48,6.27v10.37h-6.85Z"/><path d="M153.48,29.03c.61,0,1.27.13,2.01.31v5.63c-.83-.31-1.7-.48-2.53-.48-2.8,0-4.98,1.97-4.98,6.77v9.87h-5.85v-21.84h5.5v3.45h.83c.74-2.05,2.4-3.71,5.02-3.71M153.48,28.03c-1.97,0-3.68.85-4.85,2.34v-2.08h-7.5v23.84h7.85v-10.87c0-2.63.69-5.77,3.98-5.77.69,0,1.44.15,2.19.42l1.35.5v-7.86l-.77-.18c-.85-.2-1.55-.33-2.24-.33h0Z"/><path d="M157.04,51.63v-22.84h6.85v22.84h-6.85ZM160.55,27.48c-2.73,0-4.43-1.65-4.43-4.3s1.74-4.34,4.43-4.34c2.51,0,4.26,1.79,4.26,4.34s-1.71,4.3-4.26,4.3Z"/><path d="M160.55,19.34c2.23,0,3.76,1.53,3.76,3.84s-1.53,3.8-3.76,3.8c-2.49,0-3.93-1.44-3.93-3.8s1.44-3.84,3.93-3.84M163.39,29.3v21.84h-5.85v-21.84h5.85M160.55,18.34c-3,0-4.93,1.9-4.93,4.84s1.94,4.8,4.93,4.8,4.76-1.93,4.76-4.8-1.96-4.84-4.76-4.84h0ZM164.39,28.3h-7.85v23.84h7.85v-23.84h0Z"/><path d="M174.23,52.07c-5.1,0-8.67-4.91-8.67-11.94s3.65-11.77,8.89-11.77c2.77,0,5.11,1.26,6.31,3.38v-2.94h6.94v22.8h-6.94v-3.28c-.94,1.51-2.94,3.76-6.53,3.76ZM176.63,34.56c-2.62,0-4.13,2.05-4.13,5.62s1.54,5.7,4.13,5.7c1.17,0,2.12-.36,2.81-1.06.88-.9,1.34-2.35,1.32-4.2v-1.05c.02-1.71-.41-3.07-1.27-3.93-.7-.71-1.67-1.07-2.86-1.07Z"/><path d="M174.44,28.86c3.06,0,5.11,1.57,6.03,3.41h.79v-2.97h5.94v21.8h-5.94v-3.28h-.79c-.96,1.66-2.88,3.76-6.25,3.76-4.85,0-8.17-4.72-8.17-11.44s3.45-11.27,8.39-11.27M176.63,46.37c3.06,0,4.67-2.23,4.63-5.77v-1.05c.04-3.32-1.57-5.5-4.63-5.5s-4.63,2.36-4.63,6.12,1.66,6.2,4.63,6.2M174.44,27.86c-5.53,0-9.39,5.05-9.39,12.27s3.77,12.44,9.17,12.44c2.91,0,4.84-1.38,6.03-2.75v2.27h7.94v-23.8h-7.94v1.92c-1.4-1.5-3.46-2.36-5.81-2.36h0ZM176.63,45.37c-3.28,0-3.63-3.64-3.63-5.2,0-1.91.47-5.12,3.63-5.12,1.06,0,1.9.31,2.51.92.75.76,1.14,2,1.12,3.57v1.06c.02,1.73-.38,3.06-1.17,3.86-.59.6-1.42.91-2.46.91h0Z"/><path class="cls-1" d="M191.8,33.73c-2.14,0-3.88-1.76-3.88-3.92s1.74-3.88,3.88-3.88,3.9,1.74,3.9,3.88-1.75,3.92-3.9,3.92ZM190.56,31.75c.36.24.79.39,1.24.39s.91-.14,1.27-.39h-.99l-.23-.37v.37h-1.3ZM190.34,28.07c-.5.42-.82,1.05-.82,1.74s.32,1.34.82,1.77v-3.51ZM192.83,30.15c.12.16.26.37.46.66l.31.45c.32-.4.51-.9.51-1.45,0-1.24-1.06-2.29-2.31-2.29-.43,0-.83.12-1.18.34h1.34c.98,0,1.43.66,1.43,1.27,0,.4-.21.81-.57,1.03Z"/><path d="M191.8,26.29c1.94,0,3.54,1.59,3.54,3.52s-1.59,3.55-3.54,3.55-3.52-1.59-3.52-3.55,1.59-3.52,3.52-3.52M191.8,32.5c1.46,0,2.67-1.21,2.67-2.68s-1.21-2.65-2.67-2.65-2.65,1.21-2.65,2.65,1.21,2.68,2.65,2.68M191.97,28.22c.74,0,1.07.44,1.07.91,0,.42-.3.82-.79.82v.1c.18.13.39.45.91,1.22l.08.12h-.96l-.69-1.12h-.1v1.12h-.8v-3.17h1.27M191.48,29.56h.39c.2,0,.32-.15.32-.29,0-.15-.1-.3-.3-.3h-.4v.59M191.8,25.57c-2.34,0-4.24,1.9-4.24,4.24s1.9,4.27,4.24,4.27,4.26-1.92,4.26-4.27-1.91-4.24-4.26-4.24h0ZM189.98,30.43c-.07-.19-.1-.4-.1-.62s.04-.41.1-.61v1.22h0ZM193.32,30.22c.19-.2.33-.44.4-.73.02.1.03.21.03.31,0,.28-.06.55-.17.79-.1-.14-.18-.27-.26-.38h0Z"/><path class="cls-1" d="M49.89,50.43c-2.95,0-5.16-1.35-6.14-3.72v3.28h-6.85v-28.78l6.85-.61v9.58c1.1-2.18,3.33-3.42,6.18-3.42,5.48,0,8.89,4.56,8.89,11.9s-3.51,11.77-8.93,11.77ZM47.84,32.87c-1.1,0-2.01.36-2.71,1.07-.91.92-1.4,2.41-1.38,4.19v.84c-.02,1.89.45,3.38,1.37,4.31.68.69,1.58,1.04,2.67,1.04,3.69,0,4.09-4.02,4.09-5.75,0-3.57-1.51-5.7-4.04-5.7Z"/><path d="M43.25,21.15v9.61h.79c.87-2.05,2.88-3.49,5.9-3.49,5.29,0,8.39,4.54,8.39,11.4s-3.23,11.27-8.43,11.27c-3.01,0-5.07-1.44-5.85-3.89h-.79v3.45h-5.85v-27.82l5.85-.52M47.8,44.82c3.06,0,4.59-2.53,4.59-6.25s-1.53-6.2-4.54-6.2-4.63,2.36-4.59,5.77v.83c-.04,3.58,1.66,5.85,4.54,5.85M44.25,20.05l-1.09.1-5.85.52-.91.08v29.74h7.85v-1.96c1.26,1.55,3.22,2.4,5.64,2.4,5.73,0,9.43-4.82,9.43-12.27s-3.68-12.4-9.39-12.4c-2.38,0-4.36.82-5.68,2.3v-8.51h0ZM47.8,43.82c-.95,0-1.73-.3-2.32-.89-.81-.82-1.25-2.22-1.23-3.95v-.84c-.02-1.66.42-3.02,1.23-3.85.6-.61,1.39-.92,2.36-.92,3.2,0,3.54,3.64,3.54,5.2,0,1.96-.47,5.25-3.59,5.25h0Z"/><path class="cls-1" d="M68.41,50.43c-5.1,0-8.67-4.91-8.67-11.94s3.65-11.77,8.89-11.77c2.77,0,5.11,1.26,6.31,3.38v-2.94h6.94v22.8h-6.94v-3.28h0c-.94,1.51-2.94,3.76-6.53,3.76ZM70.82,32.91c-2.62,0-4.13,2.05-4.13,5.62s1.54,5.7,4.13,5.7c1.17,0,2.12-.36,2.81-1.06.88-.9,1.34-2.35,1.32-4.2v-1.05c.02-1.71-.41-3.07-1.27-3.93-.7-.71-1.67-1.07-2.86-1.07Z"/><path d="M68.63,27.22c3.06,0,5.11,1.57,6.03,3.41h.79v-2.97h5.94v21.8h-5.94v-3.28h-.79c-.96,1.66-2.88,3.76-6.25,3.76-4.85,0-8.17-4.72-8.17-11.44s3.45-11.27,8.39-11.27M70.81,44.73c3.06,0,4.67-2.23,4.63-5.77v-1.05c.04-3.32-1.57-5.5-4.63-5.5s-4.63,2.36-4.63,6.12,1.66,6.2,4.63,6.2M68.63,26.22c-5.53,0-9.39,5.05-9.39,12.27s3.77,12.44,9.17,12.44c2.91,0,4.84-1.38,6.03-2.75v2.27h7.94v-23.8h-7.94v1.92c-1.4-1.5-3.46-2.36-5.81-2.36h0ZM70.81,43.73c-3.28,0-3.63-3.64-3.63-5.2,0-1.91.47-5.12,3.63-5.12,1.06,0,1.91.31,2.51.92.75.76,1.14,2,1.12,3.57v1.06c.02,1.73-.38,3.06-1.17,3.86-.59.6-1.42.91-2.46.91h0Z"/><path class="cls-1" d="M93.53,50.34c-7.07,0-10.81-4.05-10.81-11.73s3.8-11.81,10.98-11.81c6.4,0,9.85,3.4,9.98,9.84v.51s-6.52,0-6.52,0l-.03-.47c-.16-2.86-1.19-4.03-3.56-4.03-2.63,0-3.91,1.95-3.91,5.96,0,5.31,2.21,5.92,3.87,5.92,2.33,0,3.42-1.21,3.65-4.04l.04-.46h6.54l-.04.54c-.45,6.39-3.98,9.77-10.2,9.77Z"/><path d="M93.7,27.3c5.81,0,9.35,2.93,9.48,9.35h-5.55c-.17-3.19-1.49-4.5-4.06-4.5-3.01,0-4.41,2.27-4.41,6.46s1.27,6.42,4.37,6.42c2.53,0,3.89-1.31,4.15-4.5h5.55c-.44,6.16-3.8,9.3-9.7,9.3-6.77,0-10.31-3.84-10.31-11.23s3.54-11.31,10.48-11.31M93.7,26.3c-7.51,0-11.48,4.26-11.48,12.31s4.02,12.23,11.31,12.23c6.43,0,10.23-3.63,10.69-10.23l.08-1.07h-7.54l-.08.92c-.24,2.97-1.44,3.58-3.15,3.58-1.57,0-3.37-.62-3.37-5.42,0-5.46,2.48-5.46,3.41-5.46,1.77,0,2.9.59,3.06,3.55l.05.95h7.51l-.02-1.02c-.14-6.66-3.86-10.33-10.48-10.33h0Z"/><path class="cls-1" d="M110.65,49.99c-4.1,0-4.65-2.37-4.65-4.69v-12.39h-1.92v-5.61l8.47-3.07v2.92h5.24v5.76h-4.94v10.25c0,.68.35,1.03,1.03,1.03h3.64v5.8h-6.88Z"/><path d="M112.05,24.95v2.71h5.24v4.76h-4.94v10.75c0,.96.57,1.53,1.53,1.53h3.14v4.8h-6.38c-3.58,0-4.15-1.88-4.15-4.19v-12.89h-1.92v-4.76l7.47-2.71M113.05,23.52l-1.34.49-7.47,2.71-.66.24v6.46h1.92v11.89c0,2.23.53,5.19,5.15,5.19h7.38v-6.8h-4.14c-.41,0-.53-.12-.53-.53v-9.75h4.94v-6.76h-5.24v-3.13h0Z"/><path class="cls-1" d="M128.51,50.43c-6.7,0-10.55-4.26-10.55-11.68s3.89-12.03,10.42-12.03c2.85,0,5.27.92,7.01,2.67,2.02,2.03,3.08,5.13,3.05,8.97v2.42h-13.57c.14,2.41,1.35,3.63,3.59,3.63,1.35,0,3.02-.43,3.31-2.45l.06-.43h6.5l-.02.52c-.17,5.17-3.93,8.39-9.8,8.39ZM131.53,36.37c-.14-1.86-.84-3.85-3.14-3.85-2.61,0-3.25,2.22-3.37,3.85h6.51Z"/><path d="M128.38,27.22c5.81,0,9.61,3.93,9.57,11.14v1.92h-13.58c0,3.15,1.57,4.63,4.11,4.63,2.18,0,3.54-1.05,3.8-2.88h5.55c-.17,5.24-4.11,7.91-9.3,7.91-6.16,0-10.05-3.71-10.05-11.18s4.15-11.53,9.92-11.53M124.49,36.87h7.56c-.09-3.15-1.4-4.85-3.67-4.85-2.4,0-3.84,1.7-3.89,4.85M128.38,26.22c-6.73,0-10.92,4.8-10.92,12.53s4.03,12.18,11.05,12.18c6.17,0,10.12-3.4,10.3-8.87l.03-.78h.11v-2.92c.02-3.96-1.08-7.19-3.2-9.32-1.83-1.85-4.38-2.82-7.37-2.82h0ZM125.57,35.87c.21-1.46.91-2.85,2.81-2.85,1.46,0,2.32.96,2.59,2.85h-5.4ZM125.43,41.28h5.94l-.09.61c-.19,1.34-1.14,2.02-2.81,2.02-1.78,0-2.78-.86-3.04-2.63h0Z"/><path class="cls-1" d="M139.98,49.99v-22.84h6.5v3.42c.98-2.35,2.91-3.68,5.35-3.68.64,0,1.28.12,2.12.32l.39.09v6.75l-.67-.25c-.8-.29-1.61-.45-2.36-.45-2.89,0-4.48,2.23-4.48,6.27v10.37h-6.85Z"/><path d="M151.84,27.39c.61,0,1.27.13,2.01.31v5.63c-.83-.31-1.7-.48-2.53-.48-2.8,0-4.98,1.97-4.98,6.77v9.87h-5.85v-21.84h5.5v3.45h.83c.74-2.05,2.4-3.71,5.02-3.71M151.84,26.39c-1.97,0-3.68.85-4.85,2.34v-2.08h-7.5v23.84h7.85v-10.87c0-2.63.69-5.77,3.98-5.77.69,0,1.44.15,2.19.42l1.35.5v-7.86l-.77-.18c-.85-.2-1.55-.33-2.24-.33h0Z"/><path class="cls-1" d="M155.4,49.99v-22.84h6.85v22.84h-6.85ZM158.91,25.84c-2.73,0-4.43-1.65-4.43-4.3s1.74-4.34,4.43-4.34c2.51,0,4.26,1.79,4.26,4.34s-1.71,4.3-4.26,4.3Z"/><path d="M158.91,17.69c2.23,0,3.76,1.53,3.76,3.84s-1.53,3.8-3.76,3.8c-2.49,0-3.93-1.44-3.93-3.8s1.44-3.84,3.93-3.84M161.75,27.65v21.84h-5.85v-21.84h5.85M158.91,16.69c-3,0-4.93,1.9-4.93,4.84s1.94,4.8,4.93,4.8,4.76-1.93,4.76-4.8-1.96-4.84-4.76-4.84h0ZM162.75,26.65h-7.85v23.84h7.85v-23.84h0Z"/><path class="cls-1" d="M172.58,50.43c-5.1,0-8.67-4.91-8.67-11.94s3.65-11.77,8.89-11.77c2.77,0,5.11,1.26,6.31,3.38v-2.94h6.94v22.8h-6.94v-3.28c-.94,1.51-2.94,3.76-6.53,3.76ZM174.99,32.91c-2.62,0-4.13,2.05-4.13,5.62s1.54,5.7,4.13,5.7c1.17,0,2.12-.36,2.81-1.06.88-.9,1.34-2.35,1.32-4.2v-1.05c.02-1.71-.41-3.07-1.27-3.93-.7-.71-1.67-1.07-2.86-1.07Z"/><path d="M172.8,27.22c3.06,0,5.11,1.57,6.03,3.41h.79v-2.97h5.94v21.8h-5.94v-3.28h-.79c-.96,1.66-2.88,3.76-6.25,3.76-4.85,0-8.17-4.72-8.17-11.44s3.45-11.27,8.39-11.27M174.99,44.73c3.06,0,4.67-2.23,4.63-5.77v-1.05c.04-3.32-1.57-5.5-4.63-5.5s-4.63,2.36-4.63,6.12,1.66,6.2,4.63,6.2M172.8,26.22c-5.53,0-9.39,5.05-9.39,12.27s3.77,12.44,9.17,12.44c2.91,0,4.84-1.38,6.03-2.75v2.27h7.94v-23.8h-7.94v1.92c-1.4-1.5-3.46-2.36-5.81-2.36h0ZM174.99,43.73c-3.28,0-3.63-3.64-3.63-5.2,0-1.91.47-5.12,3.63-5.12,1.06,0,1.9.31,2.51.92.75.76,1.14,2,1.12,3.57v1.06c.02,1.73-.38,3.06-1.17,3.86-.59.6-1.42.91-2.46.91h0Z"/></svg>