<svg width="213" height="69" viewBox="0 0 213 69" fill="none" xmlns="http://www.w3.org/2000/svg">
<g clip-path="url(#clip0_655_11335)">
<path d="M106.498 0L120.97 6.54671L141.198 1.88127L148.344 9.60142L172.137 7.32376L171.183 15.3805L195.962 15.736L187.014 23.258L210.093 26.2089L194.119 32.3749L213 37.6035L191.73 41.753L204.364 48.6898L180.103 50.3666L185.121 58.2629L160.501 57.2877L157.36 65.2846L135.048 61.7643L124.089 69L106.498 63.3153L88.9114 69L77.9519 61.7643L55.6367 65.2846L52.4991 57.2877L27.876 58.2629L32.8973 50.3666L8.63602 48.6898L21.2704 41.753L0 37.6035L18.8814 32.3749L2.90362 26.2089L25.986 23.258L17.035 15.736L41.8141 15.3805L40.8628 7.32376L64.6532 9.60142L71.8015 1.88127L92.0271 6.54671L106.498 0Z" fill="#C8FF00"/>
</g>
<g filter="url(#filter0_d_655_11335)">
<mask id="path-2-outside-1_655_11335" maskUnits="userSpaceOnUse" x="27.4993" y="16.7969" width="23" height="31" fill="black">
<rect fill="white" x="27.4993" y="16.7969" width="23" height="31"/>
<path d="M28.4993 43.7296V17.7969H34.2195V27.4453H35.0736C35.1867 27.2125 35.2791 27.0375 35.3509 26.9218C35.4212 26.8061 35.5137 26.6311 35.6282 26.3983C35.7703 26.2233 35.8848 26.0921 35.969 26.0061C36.0545 25.9186 36.1677 25.7874 36.3112 25.6138C36.4822 25.4388 36.6947 25.2639 36.9513 25.0903C37.0645 25.0028 37.1859 24.9224 37.3142 24.8504C37.4425 24.7785 37.5763 24.7122 37.7198 24.6543C37.9765 24.5668 38.1613 24.5019 38.2745 24.4582C38.3876 24.4145 38.5587 24.3495 38.7863 24.2621C39.0995 24.2042 39.4196 24.1534 39.7466 24.1097C40.0736 24.0659 40.4089 24.0448 40.7497 24.0448C41.0905 24.0448 41.4326 24.0659 41.7748 24.1097C42.1156 24.1534 42.4426 24.2183 42.7571 24.3058C42.9282 24.3354 43.1835 24.4088 43.5256 24.5245C43.8099 24.6416 44.0803 24.7644 44.3369 24.8956C44.5935 25.0268 44.835 25.1792 45.0626 25.3542C45.3193 25.5291 45.5607 25.7323 45.7884 25.9651C46.016 26.198 46.2299 26.4449 46.4285 26.7073C46.8273 27.2026 47.1819 27.7416 47.495 28.3229C47.8082 28.9057 48.0635 29.5307 48.2635 30.2009C48.4912 30.9587 48.6692 31.7657 48.7975 32.6236C48.9258 33.4815 48.9893 34.3916 48.9893 35.3525C48.9893 35.6728 48.9824 35.9931 48.9672 36.3134C48.952 36.6337 48.9313 36.954 48.9037 37.2743C48.8458 37.7103 48.7823 38.1336 48.7119 38.5399C48.6402 38.9477 48.5478 39.3555 48.4346 39.7619C48.0925 41.043 47.5944 42.1634 46.9404 43.1229C46.285 44.0837 45.5166 44.84 44.6349 45.3932C44.3507 45.5681 44.0651 45.7205 43.7809 45.8517C43.4967 45.9829 43.1973 46.0916 42.8841 46.1791C42.5419 46.2948 42.1859 46.3752 41.8176 46.4189C41.4478 46.4627 41.0767 46.4839 40.7083 46.4839C40.4241 46.4839 40.1385 46.4697 39.8542 46.4401C39.57 46.4105 39.2996 46.3667 39.043 46.3089C38.9009 46.2793 38.7588 46.2496 38.6166 46.2214C38.4745 46.1918 38.3324 46.1494 38.1903 46.0902C38.0758 46.062 37.9627 46.0182 37.8482 45.959C37.7336 45.9011 37.6205 45.8433 37.5074 45.784C37.3653 45.7261 37.23 45.6457 37.1017 45.5441C36.9734 45.4425 36.852 45.348 36.7389 45.2605C36.4822 45.0277 36.2477 44.7808 36.0352 44.5183C35.8214 44.2559 35.6296 43.9652 35.4585 43.6449C35.2874 43.3246 35.1591 43.0199 35.0749 42.7278H34.2209V46.1763H28.4993V43.731V43.7296ZM39.2141 41.3492C39.3851 41.3351 39.5562 41.2984 39.7259 41.2406C39.9826 41.1827 40.2378 41.0953 40.4944 40.9781C40.58 40.9499 40.6365 40.9203 40.6655 40.8907C40.6931 40.8624 40.751 40.8328 40.8366 40.8032C40.9221 40.7453 40.9856 40.7016 41.0284 40.672C41.0711 40.6437 41.1346 40.6 41.2201 40.5407C41.2767 40.4829 41.3485 40.418 41.434 40.3446C41.5195 40.2726 41.5899 40.1922 41.6479 40.1047C41.7334 39.989 41.8038 39.9016 41.8617 39.8423C41.9183 39.7844 41.99 39.697 42.0756 39.5798C42.1611 39.4345 42.2467 39.2892 42.3322 39.1438C42.4177 38.9985 42.4881 38.8532 42.546 38.7079C42.7171 38.2422 42.8303 37.8641 42.8882 37.5734C42.9448 37.3406 42.9876 37.1148 43.0165 36.8975C43.0441 36.6788 43.0731 36.439 43.1021 36.1765C43.1297 36.0312 43.1448 35.8788 43.1448 35.7179V35.2594C43.1448 34.7359 43.109 34.2336 43.0386 33.7538C42.9669 33.2741 42.8606 32.8155 42.7185 32.3781C42.5474 31.7672 42.2977 31.2366 41.9721 30.7851C41.6451 30.3336 41.2533 29.9625 40.798 29.6718C40.4558 29.4969 40.1854 29.3812 39.9867 29.3219C39.7866 29.264 39.5811 29.2203 39.3672 29.1907C39.1534 29.1625 38.9326 29.1469 38.7049 29.1469C38.4773 29.1469 38.2496 29.1625 38.022 29.1907C37.7943 29.2203 37.5667 29.264 37.339 29.3219C37.168 29.3812 36.9127 29.4969 36.5705 29.6718C36.4284 29.7593 36.2863 29.8538 36.1442 29.9554C36.0021 30.0584 35.8738 30.1671 35.7607 30.2828C35.6461 30.3999 35.533 30.5297 35.4199 30.675C35.3054 30.8204 35.206 30.9671 35.1205 31.111C35.0349 31.2564 34.9494 31.4031 34.8638 31.547C34.8349 31.6345 34.8059 31.6994 34.7783 31.7432C34.7493 31.7869 34.7204 31.8518 34.6928 31.9393C34.6638 32.0846 34.6348 32.1862 34.6072 32.2455C34.5782 32.3047 34.5493 32.4063 34.5217 32.5503C34.4927 32.6956 34.4499 32.8423 34.3934 32.9863C34.3644 33.1909 34.3216 33.4081 34.2651 33.641C34.2361 33.9034 34.2223 34.2957 34.2223 34.8191V35.6488C34.2223 35.9395 34.2361 36.1582 34.2651 36.3035V36.6746C34.2651 36.8058 34.2789 36.93 34.3078 37.0457C34.3354 37.191 34.3644 37.3293 34.3934 37.4605C34.421 37.5918 34.4499 37.7159 34.4789 37.8316C34.5065 37.9487 34.5286 38.0277 34.5424 38.0715C34.5562 38.1152 34.5782 38.1957 34.6058 38.3114C34.6624 38.4567 34.719 38.595 34.7769 38.7262C34.8335 38.8574 34.8901 38.9816 34.948 39.0973C35.0046 39.2722 35.0832 39.4317 35.1826 39.577C35.2819 39.7224 35.3881 39.8691 35.5027 40.013C35.6737 40.2162 35.958 40.4645 36.3567 40.7552C36.6133 40.9302 36.8975 41.0614 37.2107 41.1475C37.4094 41.1771 37.5943 41.2208 37.7654 41.2787C37.9075 41.3083 38.0565 41.3295 38.2138 41.3436C38.3697 41.3591 38.5187 41.3648 38.6622 41.3648C38.8609 41.3648 39.0457 41.3577 39.2168 41.3436L39.2141 41.3492Z"/>
</mask>
<path d="M28.4993 43.7296V17.7969H34.2195V27.4453H35.0736C35.1867 27.2125 35.2791 27.0375 35.3509 26.9218C35.4212 26.8061 35.5137 26.6311 35.6282 26.3983C35.7703 26.2233 35.8848 26.0921 35.969 26.0061C36.0545 25.9186 36.1677 25.7874 36.3112 25.6138C36.4822 25.4388 36.6947 25.2639 36.9513 25.0903C37.0645 25.0028 37.1859 24.9224 37.3142 24.8504C37.4425 24.7785 37.5763 24.7122 37.7198 24.6543C37.9765 24.5668 38.1613 24.5019 38.2745 24.4582C38.3876 24.4145 38.5587 24.3495 38.7863 24.2621C39.0995 24.2042 39.4196 24.1534 39.7466 24.1097C40.0736 24.0659 40.4089 24.0448 40.7497 24.0448C41.0905 24.0448 41.4326 24.0659 41.7748 24.1097C42.1156 24.1534 42.4426 24.2183 42.7571 24.3058C42.9282 24.3354 43.1835 24.4088 43.5256 24.5245C43.8099 24.6416 44.0803 24.7644 44.3369 24.8956C44.5935 25.0268 44.835 25.1792 45.0626 25.3542C45.3193 25.5291 45.5607 25.7323 45.7884 25.9651C46.016 26.198 46.2299 26.4449 46.4285 26.7073C46.8273 27.2026 47.1819 27.7416 47.495 28.3229C47.8082 28.9057 48.0635 29.5307 48.2635 30.2009C48.4912 30.9587 48.6692 31.7657 48.7975 32.6236C48.9258 33.4815 48.9893 34.3916 48.9893 35.3525C48.9893 35.6728 48.9824 35.9931 48.9672 36.3134C48.952 36.6337 48.9313 36.954 48.9037 37.2743C48.8458 37.7103 48.7823 38.1336 48.7119 38.5399C48.6402 38.9477 48.5478 39.3555 48.4346 39.7619C48.0925 41.043 47.5944 42.1634 46.9404 43.1229C46.285 44.0837 45.5166 44.84 44.6349 45.3932C44.3507 45.5681 44.0651 45.7205 43.7809 45.8517C43.4967 45.9829 43.1973 46.0916 42.8841 46.1791C42.5419 46.2948 42.1859 46.3752 41.8176 46.4189C41.4478 46.4627 41.0767 46.4839 40.7083 46.4839C40.4241 46.4839 40.1385 46.4697 39.8542 46.4401C39.57 46.4105 39.2996 46.3667 39.043 46.3089C38.9009 46.2793 38.7588 46.2496 38.6166 46.2214C38.4745 46.1918 38.3324 46.1494 38.1903 46.0902C38.0758 46.062 37.9627 46.0182 37.8482 45.959C37.7336 45.9011 37.6205 45.8433 37.5074 45.784C37.3653 45.7261 37.23 45.6457 37.1017 45.5441C36.9734 45.4425 36.852 45.348 36.7389 45.2605C36.4822 45.0277 36.2477 44.7808 36.0352 44.5183C35.8214 44.2559 35.6296 43.9652 35.4585 43.6449C35.2874 43.3246 35.1591 43.0199 35.0749 42.7278H34.2209V46.1763H28.4993V43.731V43.7296ZM39.2141 41.3492C39.3851 41.3351 39.5562 41.2984 39.7259 41.2406C39.9826 41.1827 40.2378 41.0953 40.4944 40.9781C40.58 40.9499 40.6365 40.9203 40.6655 40.8907C40.6931 40.8624 40.751 40.8328 40.8366 40.8032C40.9221 40.7453 40.9856 40.7016 41.0284 40.672C41.0711 40.6437 41.1346 40.6 41.2201 40.5407C41.2767 40.4829 41.3485 40.418 41.434 40.3446C41.5195 40.2726 41.5899 40.1922 41.6479 40.1047C41.7334 39.989 41.8038 39.9016 41.8617 39.8423C41.9183 39.7844 41.99 39.697 42.0756 39.5798C42.1611 39.4345 42.2467 39.2892 42.3322 39.1438C42.4177 38.9985 42.4881 38.8532 42.546 38.7079C42.7171 38.2422 42.8303 37.8641 42.8882 37.5734C42.9448 37.3406 42.9876 37.1148 43.0165 36.8975C43.0441 36.6788 43.0731 36.439 43.1021 36.1765C43.1297 36.0312 43.1448 35.8788 43.1448 35.7179V35.2594C43.1448 34.7359 43.109 34.2336 43.0386 33.7538C42.9669 33.2741 42.8606 32.8155 42.7185 32.3781C42.5474 31.7672 42.2977 31.2366 41.9721 30.7851C41.6451 30.3336 41.2533 29.9625 40.798 29.6718C40.4558 29.4969 40.1854 29.3812 39.9867 29.3219C39.7866 29.264 39.5811 29.2203 39.3672 29.1907C39.1534 29.1625 38.9326 29.1469 38.7049 29.1469C38.4773 29.1469 38.2496 29.1625 38.022 29.1907C37.7943 29.2203 37.5667 29.264 37.339 29.3219C37.168 29.3812 36.9127 29.4969 36.5705 29.6718C36.4284 29.7593 36.2863 29.8538 36.1442 29.9554C36.0021 30.0584 35.8738 30.1671 35.7607 30.2828C35.6461 30.3999 35.533 30.5297 35.4199 30.675C35.3054 30.8204 35.206 30.9671 35.1205 31.111C35.0349 31.2564 34.9494 31.4031 34.8638 31.547C34.8349 31.6345 34.8059 31.6994 34.7783 31.7432C34.7493 31.7869 34.7204 31.8518 34.6928 31.9393C34.6638 32.0846 34.6348 32.1862 34.6072 32.2455C34.5782 32.3047 34.5493 32.4063 34.5217 32.5503C34.4927 32.6956 34.4499 32.8423 34.3934 32.9863C34.3644 33.1909 34.3216 33.4081 34.2651 33.641C34.2361 33.9034 34.2223 34.2957 34.2223 34.8191V35.6488C34.2223 35.9395 34.2361 36.1582 34.2651 36.3035V36.6746C34.2651 36.8058 34.2789 36.93 34.3078 37.0457C34.3354 37.191 34.3644 37.3293 34.3934 37.4605C34.421 37.5918 34.4499 37.7159 34.4789 37.8316C34.5065 37.9487 34.5286 38.0277 34.5424 38.0715C34.5562 38.1152 34.5782 38.1957 34.6058 38.3114C34.6624 38.4567 34.719 38.595 34.7769 38.7262C34.8335 38.8574 34.8901 38.9816 34.948 39.0973C35.0046 39.2722 35.0832 39.4317 35.1826 39.577C35.2819 39.7224 35.3881 39.8691 35.5027 40.013C35.6737 40.2162 35.958 40.4645 36.3567 40.7552C36.6133 40.9302 36.8975 41.0614 37.2107 41.1475C37.4094 41.1771 37.5943 41.2208 37.7654 41.2787C37.9075 41.3083 38.0565 41.3295 38.2138 41.3436C38.3697 41.3591 38.5187 41.3648 38.6622 41.3648C38.8609 41.3648 39.0457 41.3577 39.2168 41.3436L39.2141 41.3492Z" fill="white"/>
<path d="M28.4993 43.7296V17.7969H34.2195V27.4453H35.0736C35.1867 27.2125 35.2791 27.0375 35.3509 26.9218C35.4212 26.8061 35.5137 26.6311 35.6282 26.3983C35.7703 26.2233 35.8848 26.0921 35.969 26.0061C36.0545 25.9186 36.1677 25.7874 36.3112 25.6138C36.4822 25.4388 36.6947 25.2639 36.9513 25.0903C37.0645 25.0028 37.1859 24.9224 37.3142 24.8504C37.4425 24.7785 37.5763 24.7122 37.7198 24.6543C37.9765 24.5668 38.1613 24.5019 38.2745 24.4582C38.3876 24.4145 38.5587 24.3495 38.7863 24.2621C39.0995 24.2042 39.4196 24.1534 39.7466 24.1097C40.0736 24.0659 40.4089 24.0448 40.7497 24.0448C41.0905 24.0448 41.4326 24.0659 41.7748 24.1097C42.1156 24.1534 42.4426 24.2183 42.7571 24.3058C42.9282 24.3354 43.1835 24.4088 43.5256 24.5245C43.8099 24.6416 44.0803 24.7644 44.3369 24.8956C44.5935 25.0268 44.835 25.1792 45.0626 25.3542C45.3193 25.5291 45.5607 25.7323 45.7884 25.9651C46.016 26.198 46.2299 26.4449 46.4285 26.7073C46.8273 27.2026 47.1819 27.7416 47.495 28.3229C47.8082 28.9057 48.0635 29.5307 48.2635 30.2009C48.4912 30.9587 48.6692 31.7657 48.7975 32.6236C48.9258 33.4815 48.9893 34.3916 48.9893 35.3525C48.9893 35.6728 48.9824 35.9931 48.9672 36.3134C48.952 36.6337 48.9313 36.954 48.9037 37.2743C48.8458 37.7103 48.7823 38.1336 48.7119 38.5399C48.6402 38.9477 48.5478 39.3555 48.4346 39.7619C48.0925 41.043 47.5944 42.1634 46.9404 43.1229C46.285 44.0837 45.5166 44.84 44.6349 45.3932C44.3507 45.5681 44.0651 45.7205 43.7809 45.8517C43.4967 45.9829 43.1973 46.0916 42.8841 46.1791C42.5419 46.2948 42.1859 46.3752 41.8176 46.4189C41.4478 46.4627 41.0767 46.4839 40.7083 46.4839C40.4241 46.4839 40.1385 46.4697 39.8542 46.4401C39.57 46.4105 39.2996 46.3667 39.043 46.3089C38.9009 46.2793 38.7588 46.2496 38.6166 46.2214C38.4745 46.1918 38.3324 46.1494 38.1903 46.0902C38.0758 46.062 37.9627 46.0182 37.8482 45.959C37.7336 45.9011 37.6205 45.8433 37.5074 45.784C37.3653 45.7261 37.23 45.6457 37.1017 45.5441C36.9734 45.4425 36.852 45.348 36.7389 45.2605C36.4822 45.0277 36.2477 44.7808 36.0352 44.5183C35.8214 44.2559 35.6296 43.9652 35.4585 43.6449C35.2874 43.3246 35.1591 43.0199 35.0749 42.7278H34.2209V46.1763H28.4993V43.731V43.7296ZM39.2141 41.3492C39.3851 41.3351 39.5562 41.2984 39.7259 41.2406C39.9826 41.1827 40.2378 41.0953 40.4944 40.9781C40.58 40.9499 40.6365 40.9203 40.6655 40.8907C40.6931 40.8624 40.751 40.8328 40.8366 40.8032C40.9221 40.7453 40.9856 40.7016 41.0284 40.672C41.0711 40.6437 41.1346 40.6 41.2201 40.5407C41.2767 40.4829 41.3485 40.418 41.434 40.3446C41.5195 40.2726 41.5899 40.1922 41.6479 40.1047C41.7334 39.989 41.8038 39.9016 41.8617 39.8423C41.9183 39.7844 41.99 39.697 42.0756 39.5798C42.1611 39.4345 42.2467 39.2892 42.3322 39.1438C42.4177 38.9985 42.4881 38.8532 42.546 38.7079C42.7171 38.2422 42.8303 37.8641 42.8882 37.5734C42.9448 37.3406 42.9876 37.1148 43.0165 36.8975C43.0441 36.6788 43.0731 36.439 43.1021 36.1765C43.1297 36.0312 43.1448 35.8788 43.1448 35.7179V35.2594C43.1448 34.7359 43.109 34.2336 43.0386 33.7538C42.9669 33.2741 42.8606 32.8155 42.7185 32.3781C42.5474 31.7672 42.2977 31.2366 41.9721 30.7851C41.6451 30.3336 41.2533 29.9625 40.798 29.6718C40.4558 29.4969 40.1854 29.3812 39.9867 29.3219C39.7866 29.264 39.5811 29.2203 39.3672 29.1907C39.1534 29.1625 38.9326 29.1469 38.7049 29.1469C38.4773 29.1469 38.2496 29.1625 38.022 29.1907C37.7943 29.2203 37.5667 29.264 37.339 29.3219C37.168 29.3812 36.9127 29.4969 36.5705 29.6718C36.4284 29.7593 36.2863 29.8538 36.1442 29.9554C36.0021 30.0584 35.8738 30.1671 35.7607 30.2828C35.6461 30.3999 35.533 30.5297 35.4199 30.675C35.3054 30.8204 35.206 30.9671 35.1205 31.111C35.0349 31.2564 34.9494 31.4031 34.8638 31.547C34.8349 31.6345 34.8059 31.6994 34.7783 31.7432C34.7493 31.7869 34.7204 31.8518 34.6928 31.9393C34.6638 32.0846 34.6348 32.1862 34.6072 32.2455C34.5782 32.3047 34.5493 32.4063 34.5217 32.5503C34.4927 32.6956 34.4499 32.8423 34.3934 32.9863C34.3644 33.1909 34.3216 33.4081 34.2651 33.641C34.2361 33.9034 34.2223 34.2957 34.2223 34.8191V35.6488C34.2223 35.9395 34.2361 36.1582 34.2651 36.3035V36.6746C34.2651 36.8058 34.2789 36.93 34.3078 37.0457C34.3354 37.191 34.3644 37.3293 34.3934 37.4605C34.421 37.5918 34.4499 37.7159 34.4789 37.8316C34.5065 37.9487 34.5286 38.0277 34.5424 38.0715C34.5562 38.1152 34.5782 38.1957 34.6058 38.3114C34.6624 38.4567 34.719 38.595 34.7769 38.7262C34.8335 38.8574 34.8901 38.9816 34.948 39.0973C35.0046 39.2722 35.0832 39.4317 35.1826 39.577C35.2819 39.7224 35.3881 39.8691 35.5027 40.013C35.6737 40.2162 35.958 40.4645 36.3567 40.7552C36.6133 40.9302 36.8975 41.0614 37.2107 41.1475C37.4094 41.1771 37.5943 41.2208 37.7654 41.2787C37.9075 41.3083 38.0565 41.3295 38.2138 41.3436C38.3697 41.3591 38.5187 41.3648 38.6622 41.3648C38.8609 41.3648 39.0457 41.3577 39.2168 41.3436L39.2141 41.3492Z" stroke="black" stroke-width="2" mask="url(#path-2-outside-1_655_11335)"/>
</g>
<g filter="url(#filter1_d_655_11335)">
<path d="M51.1913 34.409C51.1913 34.1621 51.2051 33.9222 51.2341 33.688C51.2616 33.3677 51.2975 33.0545 51.3403 32.7497C51.3831 32.4435 51.4327 32.1458 51.4893 31.8551C51.5748 31.5348 51.6383 31.302 51.6811 31.1567C51.7239 31.0113 51.7873 30.7785 51.8729 30.4582C51.9294 30.255 52.0012 30.0505 52.0867 29.8473C52.1723 29.6441 52.2578 29.4395 52.3433 29.2363C52.5144 28.8582 52.6993 28.4941 52.898 28.1442C53.0967 27.7943 53.3105 27.4754 53.5382 27.1833C53.7658 26.863 54.0142 26.5653 54.2846 26.2887C54.555 26.0122 54.8323 25.7723 55.1165 25.5677C55.3732 25.3645 55.6505 25.1755 55.9485 25.0005C56.2479 24.8255 56.5528 24.6802 56.866 24.5645C57.2923 24.3895 57.7476 24.2597 58.2319 24.1722C58.7162 24.0848 59.1991 24.041 59.6834 24.041C59.94 24.041 60.1883 24.0481 60.4298 24.0622C60.6712 24.0777 60.9058 24.113 61.1334 24.1708C61.3321 24.2301 61.5239 24.2879 61.7102 24.3458C61.895 24.4051 62.073 24.4629 62.2441 24.5208C62.756 24.6957 63.283 25.016 63.8239 25.4816C64.1081 25.7145 64.3647 25.984 64.5924 26.2887C64.82 26.5935 65.0187 26.9364 65.1898 27.3145H66.0438V24.3458H71.8496V46.1739H66.0438V42.8567H65.1898C65.0187 43.1473 64.8117 43.4606 64.5703 43.795C64.3288 44.1294 64.0653 44.4426 63.7811 44.7333C63.581 44.9379 63.3548 45.1255 63.0981 45.3005C62.956 45.4176 62.8139 45.5192 62.6718 45.6053C62.5297 45.6928 62.3876 45.7802 62.2455 45.8677C62.1599 45.927 62.0744 45.9707 61.9889 45.999C61.9033 46.0286 61.804 46.0582 61.6895 46.0864C61.4894 46.1739 61.2907 46.2459 61.092 46.3051C60.9499 46.3334 60.8423 46.3559 60.772 46.37C60.7002 46.3842 60.594 46.4067 60.4519 46.4349C60.3098 46.4632 60.1525 46.4787 59.9828 46.4787H59.4281C59.0584 46.4787 58.6955 46.4575 58.3395 46.4138C57.9836 46.37 57.6497 46.2896 57.3365 46.1739C57.0523 46.0864 56.7819 45.9848 56.5252 45.8677C56.2686 45.752 56.0134 45.6208 55.7567 45.4755C55.4725 45.3005 55.1869 45.0973 54.9027 44.8645C54.6185 44.6317 54.3481 44.3848 54.0914 44.1223C53.6927 43.6567 53.3229 43.1403 52.9821 42.5731C52.64 42.0058 52.342 41.3878 52.0853 40.7176C51.9998 40.5144 51.9211 40.3028 51.8508 40.0841C51.779 39.8653 51.7294 39.641 51.7018 39.4082C51.6438 39.205 51.5955 38.9934 51.5528 38.7746C51.51 38.5559 51.4741 38.3316 51.4465 38.0988C51.4176 37.866 51.3886 37.6332 51.361 37.4003C51.332 37.1675 51.303 36.9347 51.2754 36.7019C51.2465 36.4691 51.2258 36.2222 51.212 35.9597C51.1968 35.6973 51.1913 35.4362 51.1913 35.1738V34.4104V34.409ZM62.6539 41.2848C63.0098 41.1973 63.3437 41.0816 63.6569 40.9349C63.9135 40.8192 64.1481 40.6668 64.3606 40.4763C64.5744 40.2872 64.7662 40.077 64.9373 39.8428C65.2781 39.3771 65.5485 38.824 65.7486 38.1834C65.8617 37.8335 65.9403 37.4483 65.9831 37.0264C66.0259 36.6045 66.0466 36.146 66.0466 35.6507V34.6023C66.0742 34.1085 66.0466 33.6203 65.961 33.1405C65.8755 32.6608 65.761 32.2163 65.6189 31.8086C65.4768 31.4883 65.3264 31.2046 65.1705 30.9577C65.0132 30.7108 64.8352 30.485 64.6365 30.2804C64.4654 30.1351 64.2874 29.9968 64.1026 29.8656C63.9177 29.7344 63.7245 29.6116 63.5258 29.4945C63.2127 29.3492 62.8926 29.2476 62.5656 29.1883C62.2386 29.1305 61.8895 29.1009 61.5198 29.1009C61.0355 29.1009 60.6023 29.1601 60.2173 29.2758C59.8338 29.3929 59.4709 29.5665 59.1287 29.7993C58.9287 29.9446 58.7452 30.0984 58.5741 30.2579C58.403 30.4187 58.2471 30.6007 58.105 30.8039C57.9615 31.0367 57.8277 31.278 57.6994 31.5249C57.571 31.7719 57.4648 32.0414 57.3793 32.332C57.2647 32.7398 57.1723 33.1829 57.1019 33.664C57.0302 34.1438 56.9957 34.6616 56.9957 35.2133C56.9957 35.7368 57.0233 36.225 57.0812 36.6751C57.1378 37.1266 57.2234 37.5555 57.3379 37.9633C57.4234 38.1961 57.509 38.4219 57.5945 38.6406C57.68 38.8593 57.7794 39.071 57.8939 39.2741C58.065 39.5662 58.2568 39.8272 58.4706 40.0601C58.6845 40.2929 58.9038 40.4961 59.1329 40.671C59.4737 40.9038 59.8434 41.0859 60.2422 41.2171C60.6409 41.3483 61.0672 41.4132 61.5225 41.4132C61.9213 41.4132 62.2979 41.3695 62.6539 41.282V41.2848Z" fill="white"/>
<path d="M51.0018 31.7427L51.0062 31.7261C51.0916 31.4066 51.1566 31.1678 51.2014 31.0155C51.2421 30.8772 51.304 30.6503 51.3898 30.3292L51.3912 30.3241L51.3912 30.3241C51.4537 30.0994 51.5326 29.8748 51.6259 29.6533L51.754 29.3483L51.8825 29.0423L51.8876 29.0301L51.8878 29.0302C52.065 28.6386 52.2567 28.2609 52.4632 27.8973C52.6716 27.5302 52.8967 27.1939 53.137 26.8846C53.3777 26.5469 53.6407 26.2321 53.9271 25.9392C54.213 25.6467 54.5089 25.3899 54.8151 25.1686C55.0883 24.953 55.3819 24.7533 55.6954 24.5693L55.6962 24.5688C56.0167 24.3815 56.3452 24.2244 56.6844 24.0986C57.1438 23.9108 57.6305 23.7728 58.143 23.6802C58.6561 23.5875 59.1687 23.541 59.6834 23.541C59.9492 23.541 60.2073 23.5483 60.459 23.563L60.4619 23.5632V23.5632C60.7311 23.5805 60.9964 23.6201 61.2566 23.6862L61.2665 23.6888L61.2764 23.6917C61.4759 23.7512 61.6697 23.8096 61.8585 23.8683L61.8628 23.8696L61.8628 23.8697C62.0487 23.9292 62.2295 23.988 62.4043 24.0471L62.4058 24.0476L62.4058 24.0476C62.9922 24.2481 63.5723 24.606 64.1455 25.0988C64.4602 25.3573 64.7432 25.6551 64.9929 25.9895C65.1829 26.2438 65.3527 26.5196 65.5038 26.8145H65.5438V24.3458V23.8458H66.0438H71.8496H72.3496V24.3458V46.1739V46.6739H71.8496H66.0438H65.5438V46.1739V43.3567H65.4707C65.3241 43.5902 65.1588 43.8341 64.9757 44.0877C64.7199 44.4419 64.4404 44.7742 64.1386 45.0829C63.9183 45.3081 63.6723 45.5126 63.3985 45.7008C63.2459 45.8253 63.0906 45.9361 62.9324 46.032C62.9319 46.0323 62.9314 46.0326 62.9308 46.033L62.7208 46.1623L62.5182 46.287C62.4037 46.3649 62.2807 46.4287 62.1493 46.4725C62.0601 46.5033 61.9608 46.5332 61.8508 46.5614C61.6446 46.6498 61.4397 46.7232 61.235 46.7843L61.2125 46.791L61.1894 46.7956C61.0991 46.8135 61.0297 46.8277 60.9708 46.8398C60.9341 46.8473 60.9014 46.854 60.8703 46.8603L60.8684 46.8606C60.8303 46.8681 60.7956 46.8753 60.7541 46.8838C60.7027 46.8944 60.6409 46.9072 60.5493 46.9254C60.3727 46.9604 60.1827 46.9787 59.9828 46.9787H59.4281C59.0393 46.9787 58.656 46.9564 58.2786 46.9101C57.8911 46.8624 57.5238 46.7749 57.1764 46.6478C56.8785 46.5555 56.5924 46.4479 56.3187 46.3231M51.0018 31.7427L52.9821 42.5731M51.0018 31.7427L50.9985 31.7596C50.9402 32.0593 50.8891 32.3658 50.8451 32.6805C50.8016 32.9909 50.765 33.3098 50.7367 33.636C50.7058 33.8893 50.6913 34.1467 50.6913 34.409V34.4104V35.1738C50.6913 35.4427 50.6969 35.7133 50.7127 35.9873L51.0018 31.7427ZM56.3187 46.3231C56.0466 46.2004 55.778 46.0621 55.5103 45.9105L55.5024 45.906L55.4946 45.9013C55.1906 45.7141 54.8868 45.4978 54.5859 45.2513C54.2878 45.0072 54.0038 44.7478 53.7339 44.4719L53.7224 44.4601L53.7116 44.4475C53.2935 43.9593 52.9077 43.42 52.5538 42.8309M56.3187 46.3231C56.3191 46.3232 56.3194 46.3234 56.3197 46.3235L56.5252 45.8677L56.3176 46.3226C56.318 46.3228 56.3184 46.3229 56.3187 46.3231ZM52.5538 42.8309C52.5537 42.8308 52.5536 42.8307 52.5535 42.8306L52.9821 42.5731M52.5538 42.8309C52.5539 42.8311 52.5539 42.8312 52.554 42.8313L52.9821 42.5731M52.5538 42.8309C52.1963 42.2383 51.8867 41.596 51.6213 40.904M52.9821 42.5731C52.64 42.0058 52.342 41.3878 52.0853 40.7176M51.6213 40.904C51.6224 40.9065 51.6234 40.9091 51.6245 40.9116L52.0853 40.7176M51.6213 40.904C51.5315 40.6901 51.4491 40.4678 51.3752 40.2385M51.6213 40.904C51.6203 40.9014 51.6194 40.8989 51.6184 40.8964L52.0853 40.7176M52.0853 40.7176L51.3752 40.2385M51.3752 40.2385C51.3751 40.238 51.3749 40.2376 51.3748 40.2372L51.8507 40.0841L51.3757 40.2399C51.3755 40.2394 51.3754 40.2389 51.3752 40.2385ZM51.2102 39.5072C51.2138 39.52 51.2173 39.5326 51.2209 39.5453L51.7018 39.4082L51.2053 39.467C51.2068 39.4805 51.2085 39.4939 51.2102 39.5072ZM50.9502 38.1591L50.9504 38.1605L51.4465 38.0988L50.95 38.1576C50.9501 38.1581 50.9501 38.1586 50.9502 38.1591ZM50.8646 37.4606C50.8647 37.461 50.8647 37.4613 50.8648 37.4617L50.8648 37.4621L51.361 37.4003L50.8645 37.4592C50.8645 37.4597 50.8646 37.4601 50.8646 37.4606ZM50.7791 36.7622C50.7792 36.7627 50.7792 36.7631 50.7793 36.7636L51.2754 36.7019L50.7789 36.7607C50.779 36.7612 50.779 36.7617 50.7791 36.7622ZM63.4448 40.4821C63.213 40.5907 62.9664 40.6814 62.7034 40.7549L62.5345 40.7964C62.2208 40.8735 61.8845 40.9132 61.5225 40.9132C61.1153 40.9132 60.7422 40.8553 60.3985 40.7421C60.0479 40.6268 59.7242 40.4679 59.4259 40.2656C59.2266 40.1123 59.0321 39.9322 58.8388 39.7218C58.6513 39.5177 58.4811 39.2868 58.3274 39.025C58.226 38.8446 58.1372 38.6555 58.0601 38.4585C57.9782 38.249 57.8962 38.0327 57.814 37.8095C57.7093 37.4328 57.6302 37.0345 57.5774 36.6129L57.5772 36.6112C57.5224 36.1861 57.4957 35.7197 57.4957 35.2133C57.4957 34.682 57.529 34.1893 57.5964 33.738L57.5967 33.7364C57.6642 33.2748 57.7522 32.854 57.8598 32.4702C57.9372 32.2079 58.0317 31.9698 58.143 31.7555C58.2649 31.5209 58.3902 31.2949 58.5229 31.0789C58.6443 30.9068 58.7751 30.7553 58.9158 30.6229C59.0716 30.4777 59.2372 30.3389 59.4163 30.2084C59.7152 30.0059 60.0301 29.8559 60.3623 29.7543C60.693 29.6551 61.0764 29.6009 61.5198 29.6009C61.8625 29.6009 62.1819 29.6283 62.4773 29.6805C62.7536 29.7306 63.0254 29.8157 63.2935 29.938C63.475 30.0456 63.6487 30.1566 63.8132 30.2733C63.9796 30.3915 64.14 30.5157 64.2942 30.6458C64.4618 30.8207 64.6132 31.0137 64.7482 31.2255C64.8864 31.4445 65.0226 31.6997 65.1534 31.9925C65.2829 32.3675 65.3888 32.7795 65.4688 33.2283C65.5473 33.6683 65.5729 34.1177 65.5474 34.5744L65.5466 34.5884V34.6023V35.6507C65.5466 36.1324 65.5264 36.5738 65.4857 36.976C65.446 37.3672 65.3738 37.7173 65.2728 38.0296L65.2728 38.0296L65.2713 38.0344C65.085 38.6309 64.8373 39.1328 64.5338 39.5475L64.5335 39.5479C64.3837 39.753 64.2162 39.9366 64.0294 40.1017L64.0268 40.104C63.8525 40.2602 63.6613 40.3845 63.4514 40.4791L63.4514 40.479L63.4448 40.4821Z" stroke="black"/>
</g>
<g filter="url(#filter2_d_655_11335)">
<mask id="path-5-outside-2_655_11335" maskUnits="userSpaceOnUse" x="73.5938" y="23.0381" width="22" height="25" fill="black">
<rect fill="white" x="73.5938" y="23.0381" width="22" height="25"/>
<path d="M82.6443 46.3488C82.0041 46.2613 81.3998 46.1301 80.83 45.9565C80.4879 45.8408 80.154 45.7166 79.827 45.5854C79.5 45.4542 79.2075 45.3018 78.9522 45.1268C78.8377 45.069 78.7177 44.9956 78.5894 44.9081C78.4611 44.8207 78.3397 44.7332 78.2265 44.6457C78.112 44.5582 77.9989 44.4707 77.8843 44.3833C77.7698 44.2958 77.6567 44.1942 77.5436 44.0785C77.429 43.9628 77.3159 43.8457 77.2014 43.7285C77.0869 43.6128 76.9875 43.4957 76.902 43.3786C76.7875 43.2333 76.6881 43.095 76.6026 42.9638C76.5171 42.8326 76.4315 42.6957 76.346 42.549C76.2315 42.3458 76.1183 42.1412 76.0038 41.938C75.8893 41.7348 75.7762 41.5161 75.663 41.2833C75.5485 40.963 75.463 40.7231 75.4064 40.5623C75.3485 40.4028 75.2643 40.163 75.1498 39.8427C75.0642 39.5802 74.9925 39.3037 74.9359 39.013C74.878 38.7223 74.8214 38.4317 74.7648 38.1396C74.7069 37.7036 74.6641 37.245 74.6365 36.7639C74.6075 36.2841 74.5938 35.7973 74.5938 35.3021C74.5938 34.8068 74.6144 34.32 74.6572 33.8389C74.7 33.3591 74.7497 32.9006 74.8062 32.4631C74.8628 31.9975 74.9483 31.5319 75.0628 31.0663C75.176 30.6006 75.3043 30.1646 75.4464 29.7569C75.6741 29.2037 75.9224 28.6873 76.1928 28.2076C76.4633 27.7278 76.7833 27.2848 77.1531 26.8756C77.4663 26.5553 77.8002 26.2505 78.1561 25.9585C78.5121 25.6678 78.8888 25.4195 79.2875 25.2163C79.6297 25.0131 80.0063 24.8452 80.4189 24.714C80.8314 24.5827 81.2508 24.46 81.6785 24.3429C82.1338 24.2272 82.6236 24.1467 83.1507 24.103C83.6763 24.0593 84.2393 24.0381 84.8367 24.0381C85.4341 24.0381 86.0536 24.0748 86.6082 24.1467C87.1629 24.2201 87.6968 24.3288 88.2087 24.4741C88.693 24.6194 89.14 24.7803 89.5539 24.9538C89.9664 25.1288 90.3431 25.3461 90.6853 25.6085C90.8839 25.7539 91.084 25.9077 91.2827 26.0671C91.4813 26.228 91.6662 26.3945 91.8373 26.5694C91.9794 26.7444 92.1215 26.9193 92.2636 27.0929C92.4057 27.2679 92.5341 27.4569 92.6472 27.6601C92.7603 27.8351 92.861 28.01 92.9466 28.1836C93.0321 28.3586 93.1177 28.5335 93.2032 28.7071C93.2598 28.8524 93.3163 29.0062 93.3743 29.1656C93.4309 29.3265 93.4874 29.4789 93.5454 29.6242C93.602 29.7992 93.6378 29.9234 93.6516 29.9953C93.6654 30.0687 93.7013 30.1914 93.7579 30.3664C93.8144 30.6585 93.8503 30.8687 93.8641 30.9999C93.8779 31.1312 93.9138 31.3273 93.9703 31.5897C93.9979 31.8226 94.0269 32.0695 94.0559 32.3319C94.0835 32.5069 94.0986 32.6819 94.0986 32.8554V33.3789H88.6778C88.6488 33.0882 88.6198 32.8187 88.5922 32.5718C88.5633 32.3249 88.5205 32.085 88.4639 31.8522C88.435 31.6194 88.3784 31.4091 88.2928 31.2186C88.2073 31.0296 88.1218 30.8476 88.0362 30.6726C87.8927 30.3523 87.7092 30.0828 87.4816 29.8655C87.2539 29.6468 86.9973 29.4507 86.7131 29.2757C86.3433 29.1007 85.9874 28.9992 85.6466 28.9695C85.5045 28.9413 85.3541 28.9187 85.1982 28.9046C85.0409 28.8905 84.8781 28.8834 84.707 28.8834C84.3938 28.8834 84.1027 28.9046 83.8323 28.9484C83.5618 28.9921 83.3121 29.0725 83.0858 29.1882C82.8292 29.2757 82.5947 29.3928 82.3808 29.5382C82.167 29.6835 81.9752 29.8584 81.8041 30.0616C81.662 30.2084 81.5337 30.3678 81.4205 30.5414C81.306 30.7163 81.2067 30.9054 81.1211 31.1086C81.0066 31.3414 80.9142 31.5742 80.8438 31.807C80.7721 32.0399 80.7086 32.2868 80.652 32.5492C80.5941 32.7538 80.5513 32.9711 80.5237 33.2039C80.4948 33.4367 80.4658 33.6696 80.4382 33.9024C80.4092 34.1352 80.3954 34.368 80.3954 34.6008V35.2993C80.3954 35.6774 80.4023 36.0485 80.4161 36.4125C80.4299 36.7766 80.4658 37.1321 80.5223 37.4821C80.5789 37.7741 80.6438 38.0563 80.7141 38.3329C80.7845 38.6095 80.8631 38.879 80.9487 39.14C81.0052 39.315 81.077 39.4744 81.1625 39.6197C81.2481 39.7651 81.3336 39.9118 81.4192 40.0557C81.5047 40.1728 81.5902 40.2885 81.6758 40.4057C81.7613 40.5228 81.8607 40.6244 81.9752 40.7118C82.1463 40.8868 82.338 41.0392 82.5519 41.1704C82.7657 41.3016 82.9851 41.3962 83.2141 41.454C83.4418 41.5119 83.6763 41.5627 83.9192 41.6064C84.1606 41.6501 84.4104 41.6713 84.6656 41.6713C84.8643 41.6713 85.0561 41.6643 85.2423 41.6501C85.4272 41.636 85.6052 41.6135 85.7763 41.5852C85.9473 41.5274 86.1102 41.4695 86.2674 41.4103C86.4233 41.3524 86.5724 41.2946 86.7158 41.2353C86.858 41.1775 86.9932 41.097 87.1215 40.9954C87.2498 40.8939 87.3698 40.7852 87.4843 40.6681C87.6264 40.5228 87.7548 40.3563 87.8679 40.1658C87.981 39.9767 88.0955 39.7806 88.2087 39.576C88.2652 39.401 88.3218 39.2261 88.3798 39.0525C88.4363 38.8775 88.4791 38.6885 88.5081 38.4853C88.5646 38.2821 88.6074 38.0705 88.6364 37.8517C88.664 37.633 88.693 37.4087 88.7219 37.1745H94.1428C94.0848 37.8729 93.9938 38.5347 93.8655 39.1612C93.7372 39.7876 93.5813 40.369 93.3964 40.908C93.2115 41.447 92.9907 41.9493 92.7341 42.4135C92.5065 42.7916 92.2498 43.1486 91.9656 43.483C91.6814 43.8174 91.3682 44.1462 91.026 44.4651C90.6273 44.7854 90.172 45.0916 89.6601 45.3822C89.3469 45.5572 89.0048 45.7096 88.635 45.8408C88.2652 45.972 87.8803 46.0807 87.483 46.1682C87.0566 46.2839 86.6151 46.3643 86.1598 46.408C85.7045 46.4518 85.2064 46.4729 84.6656 46.4729C83.9537 46.4729 83.279 46.4292 82.6374 46.3417L82.6443 46.3488Z"/>
</mask>
<path d="M82.6443 46.3488C82.0041 46.2613 81.3998 46.1301 80.83 45.9565C80.4879 45.8408 80.154 45.7166 79.827 45.5854C79.5 45.4542 79.2075 45.3018 78.9522 45.1268C78.8377 45.069 78.7177 44.9956 78.5894 44.9081C78.4611 44.8207 78.3397 44.7332 78.2265 44.6457C78.112 44.5582 77.9989 44.4707 77.8843 44.3833C77.7698 44.2958 77.6567 44.1942 77.5436 44.0785C77.429 43.9628 77.3159 43.8457 77.2014 43.7285C77.0869 43.6128 76.9875 43.4957 76.902 43.3786C76.7875 43.2333 76.6881 43.095 76.6026 42.9638C76.5171 42.8326 76.4315 42.6957 76.346 42.549C76.2315 42.3458 76.1183 42.1412 76.0038 41.938C75.8893 41.7348 75.7762 41.5161 75.663 41.2833C75.5485 40.963 75.463 40.7231 75.4064 40.5623C75.3485 40.4028 75.2643 40.163 75.1498 39.8427C75.0642 39.5802 74.9925 39.3037 74.9359 39.013C74.878 38.7223 74.8214 38.4317 74.7648 38.1396C74.7069 37.7036 74.6641 37.245 74.6365 36.7639C74.6075 36.2841 74.5938 35.7973 74.5938 35.3021C74.5938 34.8068 74.6144 34.32 74.6572 33.8389C74.7 33.3591 74.7497 32.9006 74.8062 32.4631C74.8628 31.9975 74.9483 31.5319 75.0628 31.0663C75.176 30.6006 75.3043 30.1646 75.4464 29.7569C75.6741 29.2037 75.9224 28.6873 76.1928 28.2076C76.4633 27.7278 76.7833 27.2848 77.1531 26.8756C77.4663 26.5553 77.8002 26.2505 78.1561 25.9585C78.5121 25.6678 78.8888 25.4195 79.2875 25.2163C79.6297 25.0131 80.0063 24.8452 80.4189 24.714C80.8314 24.5827 81.2508 24.46 81.6785 24.3429C82.1338 24.2272 82.6236 24.1467 83.1507 24.103C83.6763 24.0593 84.2393 24.0381 84.8367 24.0381C85.4341 24.0381 86.0536 24.0748 86.6082 24.1467C87.1629 24.2201 87.6968 24.3288 88.2087 24.4741C88.693 24.6194 89.14 24.7803 89.5539 24.9538C89.9664 25.1288 90.3431 25.3461 90.6853 25.6085C90.8839 25.7539 91.084 25.9077 91.2827 26.0671C91.4813 26.228 91.6662 26.3945 91.8373 26.5694C91.9794 26.7444 92.1215 26.9193 92.2636 27.0929C92.4057 27.2679 92.5341 27.4569 92.6472 27.6601C92.7603 27.8351 92.861 28.01 92.9466 28.1836C93.0321 28.3586 93.1177 28.5335 93.2032 28.7071C93.2598 28.8524 93.3163 29.0062 93.3743 29.1656C93.4309 29.3265 93.4874 29.4789 93.5454 29.6242C93.602 29.7992 93.6378 29.9234 93.6516 29.9953C93.6654 30.0687 93.7013 30.1914 93.7579 30.3664C93.8144 30.6585 93.8503 30.8687 93.8641 30.9999C93.8779 31.1312 93.9138 31.3273 93.9703 31.5897C93.9979 31.8226 94.0269 32.0695 94.0559 32.3319C94.0835 32.5069 94.0986 32.6819 94.0986 32.8554V33.3789H88.6778C88.6488 33.0882 88.6198 32.8187 88.5922 32.5718C88.5633 32.3249 88.5205 32.085 88.4639 31.8522C88.435 31.6194 88.3784 31.4091 88.2928 31.2186C88.2073 31.0296 88.1218 30.8476 88.0362 30.6726C87.8927 30.3523 87.7092 30.0828 87.4816 29.8655C87.2539 29.6468 86.9973 29.4507 86.7131 29.2757C86.3433 29.1007 85.9874 28.9992 85.6466 28.9695C85.5045 28.9413 85.3541 28.9187 85.1982 28.9046C85.0409 28.8905 84.8781 28.8834 84.707 28.8834C84.3938 28.8834 84.1027 28.9046 83.8323 28.9484C83.5618 28.9921 83.3121 29.0725 83.0858 29.1882C82.8292 29.2757 82.5947 29.3928 82.3808 29.5382C82.167 29.6835 81.9752 29.8584 81.8041 30.0616C81.662 30.2084 81.5337 30.3678 81.4205 30.5414C81.306 30.7163 81.2067 30.9054 81.1211 31.1086C81.0066 31.3414 80.9142 31.5742 80.8438 31.807C80.7721 32.0399 80.7086 32.2868 80.652 32.5492C80.5941 32.7538 80.5513 32.9711 80.5237 33.2039C80.4948 33.4367 80.4658 33.6696 80.4382 33.9024C80.4092 34.1352 80.3954 34.368 80.3954 34.6008V35.2993C80.3954 35.6774 80.4023 36.0485 80.4161 36.4125C80.4299 36.7766 80.4658 37.1321 80.5223 37.4821C80.5789 37.7741 80.6438 38.0563 80.7141 38.3329C80.7845 38.6095 80.8631 38.879 80.9487 39.14C81.0052 39.315 81.077 39.4744 81.1625 39.6197C81.2481 39.7651 81.3336 39.9118 81.4192 40.0557C81.5047 40.1728 81.5902 40.2885 81.6758 40.4057C81.7613 40.5228 81.8607 40.6244 81.9752 40.7118C82.1463 40.8868 82.338 41.0392 82.5519 41.1704C82.7657 41.3016 82.9851 41.3962 83.2141 41.454C83.4418 41.5119 83.6763 41.5627 83.9192 41.6064C84.1606 41.6501 84.4104 41.6713 84.6656 41.6713C84.8643 41.6713 85.0561 41.6643 85.2423 41.6501C85.4272 41.636 85.6052 41.6135 85.7763 41.5852C85.9473 41.5274 86.1102 41.4695 86.2674 41.4103C86.4233 41.3524 86.5724 41.2946 86.7158 41.2353C86.858 41.1775 86.9932 41.097 87.1215 40.9954C87.2498 40.8939 87.3698 40.7852 87.4843 40.6681C87.6264 40.5228 87.7548 40.3563 87.8679 40.1658C87.981 39.9767 88.0955 39.7806 88.2087 39.576C88.2652 39.401 88.3218 39.2261 88.3798 39.0525C88.4363 38.8775 88.4791 38.6885 88.5081 38.4853C88.5646 38.2821 88.6074 38.0705 88.6364 37.8517C88.664 37.633 88.693 37.4087 88.7219 37.1745H94.1428C94.0848 37.8729 93.9938 38.5347 93.8655 39.1612C93.7372 39.7876 93.5813 40.369 93.3964 40.908C93.2115 41.447 92.9907 41.9493 92.7341 42.4135C92.5065 42.7916 92.2498 43.1486 91.9656 43.483C91.6814 43.8174 91.3682 44.1462 91.026 44.4651C90.6273 44.7854 90.172 45.0916 89.6601 45.3822C89.3469 45.5572 89.0048 45.7096 88.635 45.8408C88.2652 45.972 87.8803 46.0807 87.483 46.1682C87.0566 46.2839 86.6151 46.3643 86.1598 46.408C85.7045 46.4518 85.2064 46.4729 84.6656 46.4729C83.9537 46.4729 83.279 46.4292 82.6374 46.3417L82.6443 46.3488Z" fill="white"/>
<path d="M82.6443 46.3488C82.0041 46.2613 81.3998 46.1301 80.83 45.9565C80.4879 45.8408 80.154 45.7166 79.827 45.5854C79.5 45.4542 79.2075 45.3018 78.9522 45.1268C78.8377 45.069 78.7177 44.9956 78.5894 44.9081C78.4611 44.8207 78.3397 44.7332 78.2265 44.6457C78.112 44.5582 77.9989 44.4707 77.8843 44.3833C77.7698 44.2958 77.6567 44.1942 77.5436 44.0785C77.429 43.9628 77.3159 43.8457 77.2014 43.7285C77.0869 43.6128 76.9875 43.4957 76.902 43.3786C76.7875 43.2333 76.6881 43.095 76.6026 42.9638C76.5171 42.8326 76.4315 42.6957 76.346 42.549C76.2315 42.3458 76.1183 42.1412 76.0038 41.938C75.8893 41.7348 75.7762 41.5161 75.663 41.2833C75.5485 40.963 75.463 40.7231 75.4064 40.5623C75.3485 40.4028 75.2643 40.163 75.1498 39.8427C75.0642 39.5802 74.9925 39.3037 74.9359 39.013C74.878 38.7223 74.8214 38.4317 74.7648 38.1396C74.7069 37.7036 74.6641 37.245 74.6365 36.7639C74.6075 36.2841 74.5938 35.7973 74.5938 35.3021C74.5938 34.8068 74.6144 34.32 74.6572 33.8389C74.7 33.3591 74.7497 32.9006 74.8062 32.4631C74.8628 31.9975 74.9483 31.5319 75.0628 31.0663C75.176 30.6006 75.3043 30.1646 75.4464 29.7569C75.6741 29.2037 75.9224 28.6873 76.1928 28.2076C76.4633 27.7278 76.7833 27.2848 77.1531 26.8756C77.4663 26.5553 77.8002 26.2505 78.1561 25.9585C78.5121 25.6678 78.8888 25.4195 79.2875 25.2163C79.6297 25.0131 80.0063 24.8452 80.4189 24.714C80.8314 24.5827 81.2508 24.46 81.6785 24.3429C82.1338 24.2272 82.6236 24.1467 83.1507 24.103C83.6763 24.0593 84.2393 24.0381 84.8367 24.0381C85.4341 24.0381 86.0536 24.0748 86.6082 24.1467C87.1629 24.2201 87.6968 24.3288 88.2087 24.4741C88.693 24.6194 89.14 24.7803 89.5539 24.9538C89.9664 25.1288 90.3431 25.3461 90.6853 25.6085C90.8839 25.7539 91.084 25.9077 91.2827 26.0671C91.4813 26.228 91.6662 26.3945 91.8373 26.5694C91.9794 26.7444 92.1215 26.9193 92.2636 27.0929C92.4057 27.2679 92.5341 27.4569 92.6472 27.6601C92.7603 27.8351 92.861 28.01 92.9466 28.1836C93.0321 28.3586 93.1177 28.5335 93.2032 28.7071C93.2598 28.8524 93.3163 29.0062 93.3743 29.1656C93.4309 29.3265 93.4874 29.4789 93.5454 29.6242C93.602 29.7992 93.6378 29.9234 93.6516 29.9953C93.6654 30.0687 93.7013 30.1914 93.7579 30.3664C93.8144 30.6585 93.8503 30.8687 93.8641 30.9999C93.8779 31.1312 93.9138 31.3273 93.9703 31.5897C93.9979 31.8226 94.0269 32.0695 94.0559 32.3319C94.0835 32.5069 94.0986 32.6819 94.0986 32.8554V33.3789H88.6778C88.6488 33.0882 88.6198 32.8187 88.5922 32.5718C88.5633 32.3249 88.5205 32.085 88.4639 31.8522C88.435 31.6194 88.3784 31.4091 88.2928 31.2186C88.2073 31.0296 88.1218 30.8476 88.0362 30.6726C87.8927 30.3523 87.7092 30.0828 87.4816 29.8655C87.2539 29.6468 86.9973 29.4507 86.7131 29.2757C86.3433 29.1007 85.9874 28.9992 85.6466 28.9695C85.5045 28.9413 85.3541 28.9187 85.1982 28.9046C85.0409 28.8905 84.8781 28.8834 84.707 28.8834C84.3938 28.8834 84.1027 28.9046 83.8323 28.9484C83.5618 28.9921 83.3121 29.0725 83.0858 29.1882C82.8292 29.2757 82.5947 29.3928 82.3808 29.5382C82.167 29.6835 81.9752 29.8584 81.8041 30.0616C81.662 30.2084 81.5337 30.3678 81.4205 30.5414C81.306 30.7163 81.2067 30.9054 81.1211 31.1086C81.0066 31.3414 80.9142 31.5742 80.8438 31.807C80.7721 32.0399 80.7086 32.2868 80.652 32.5492C80.5941 32.7538 80.5513 32.9711 80.5237 33.2039C80.4948 33.4367 80.4658 33.6696 80.4382 33.9024C80.4092 34.1352 80.3954 34.368 80.3954 34.6008V35.2993C80.3954 35.6774 80.4023 36.0485 80.4161 36.4125C80.4299 36.7766 80.4658 37.1321 80.5223 37.4821C80.5789 37.7741 80.6438 38.0563 80.7141 38.3329C80.7845 38.6095 80.8631 38.879 80.9487 39.14C81.0052 39.315 81.077 39.4744 81.1625 39.6197C81.2481 39.7651 81.3336 39.9118 81.4192 40.0557C81.5047 40.1728 81.5902 40.2885 81.6758 40.4057C81.7613 40.5228 81.8607 40.6244 81.9752 40.7118C82.1463 40.8868 82.338 41.0392 82.5519 41.1704C82.7657 41.3016 82.9851 41.3962 83.2141 41.454C83.4418 41.5119 83.6763 41.5627 83.9192 41.6064C84.1606 41.6501 84.4104 41.6713 84.6656 41.6713C84.8643 41.6713 85.0561 41.6643 85.2423 41.6501C85.4272 41.636 85.6052 41.6135 85.7763 41.5852C85.9473 41.5274 86.1102 41.4695 86.2674 41.4103C86.4233 41.3524 86.5724 41.2946 86.7158 41.2353C86.858 41.1775 86.9932 41.097 87.1215 40.9954C87.2498 40.8939 87.3698 40.7852 87.4843 40.6681C87.6264 40.5228 87.7548 40.3563 87.8679 40.1658C87.981 39.9767 88.0955 39.7806 88.2087 39.576C88.2652 39.401 88.3218 39.2261 88.3798 39.0525C88.4363 38.8775 88.4791 38.6885 88.5081 38.4853C88.5646 38.2821 88.6074 38.0705 88.6364 37.8517C88.664 37.633 88.693 37.4087 88.7219 37.1745H94.1428C94.0848 37.8729 93.9938 38.5347 93.8655 39.1612C93.7372 39.7876 93.5813 40.369 93.3964 40.908C93.2115 41.447 92.9907 41.9493 92.7341 42.4135C92.5065 42.7916 92.2498 43.1486 91.9656 43.483C91.6814 43.8174 91.3682 44.1462 91.026 44.4651C90.6273 44.7854 90.172 45.0916 89.6601 45.3822C89.3469 45.5572 89.0048 45.7096 88.635 45.8408C88.2652 45.972 87.8803 46.0807 87.483 46.1682C87.0566 46.2839 86.6151 46.3643 86.1598 46.408C85.7045 46.4518 85.2064 46.4729 84.6656 46.4729C83.9537 46.4729 83.279 46.4292 82.6374 46.3417L82.6443 46.3488Z" stroke="black" stroke-width="2" mask="url(#path-5-outside-2_655_11335)"/>
</g>
<g filter="url(#filter3_d_655_11335)">
<path d="M99.641 45.89C99.1292 45.7009 98.7166 45.4314 98.4035 45.0829C98.0903 44.733 97.8695 44.297 97.7412 43.7735C97.6129 43.25 97.5494 42.6532 97.5494 41.9844V29.1062H95.6716V24.3483C97.3218 23.7374 98.5525 23.2788 99.3637 22.9726C100.175 22.6664 101.377 22.2234 102.97 21.6406V24.3469H108.093V29.1048H103.27V39.8439C103.27 40.1063 103.312 40.3321 103.398 40.5198C103.484 40.7103 103.597 40.8768 103.739 41.0221C103.852 41.1392 104.001 41.2253 104.187 41.2845C104.372 41.3438 104.564 41.372 104.764 41.372H107.838V46.1736H101.606C100.808 46.1736 100.154 46.0791 99.6424 45.89H99.641Z" fill="white"/>
<path d="M99.4678 46.359L99.5517 46.39H99.5563C100.126 46.5851 100.815 46.6736 101.606 46.6736H107.838H108.338V46.1736V41.372V40.872H107.838H104.764C104.612 40.872 104.472 40.8507 104.34 40.8084L104.339 40.8081C104.213 40.7679 104.142 40.7195 104.098 40.6747L104.096 40.6725C103.996 40.5701 103.916 40.4529 103.854 40.3149L103.853 40.3124C103.804 40.2052 103.77 40.0538 103.77 39.8439V29.6048H108.093H108.593V29.1048V24.3469V23.8469H108.093H103.47V21.6406V20.9254L102.799 21.171C101.205 21.7538 100.001 22.1976 99.1872 22.5048C98.3774 22.8104 97.1479 23.2685 95.498 23.8794L95.1716 24.0003V24.3483V29.1062V29.6062H95.6716H97.0494V41.9844C97.0494 42.6836 97.1156 43.3217 97.2556 43.8926C97.4006 44.4841 97.6555 44.997 98.0309 45.4164L98.0316 45.4171C98.4071 45.835 98.8919 46.1463 99.4678 46.359Z" stroke="black"/>
</g>
<g filter="url(#filter4_d_655_11335)">
<mask id="path-8-outside-3_655_11335" maskUnits="userSpaceOnUse" x="107.425" y="23.0391" width="23" height="25" fill="black">
<rect fill="white" x="107.425" y="23.0391" width="23" height="25"/>
<path d="M109.485 33.7975C109.528 33.2599 109.592 32.7435 109.677 32.2482C109.734 31.9576 109.805 31.6669 109.891 31.3748C109.976 31.0842 110.062 30.7935 110.148 30.5014C110.261 30.1811 110.382 29.8608 110.51 29.5405C110.639 29.2202 110.788 28.9155 110.959 28.6234C111.13 28.2735 111.342 27.932 111.599 27.5976C111.856 27.2632 112.125 26.9499 112.41 26.6593C112.609 26.4561 112.83 26.2515 113.073 26.0483C113.314 25.8451 113.549 25.6702 113.776 25.5248C114.004 25.3795 114.238 25.2412 114.481 25.11C114.723 24.9788 114.972 24.856 115.228 24.7389C115.541 24.5936 115.854 24.4765 116.167 24.389C116.48 24.3015 116.807 24.2437 117.15 24.214C117.463 24.1562 117.783 24.1124 118.11 24.0828C118.437 24.0546 118.772 24.0391 119.113 24.0391C119.71 24.0391 120.287 24.0828 120.842 24.1703C121.396 24.2578 121.915 24.389 122.399 24.5625C122.855 24.7375 123.281 24.9266 123.68 25.1298C124.078 25.3329 124.433 25.5658 124.748 25.8282C124.946 25.9453 125.131 26.0836 125.302 26.243C125.473 26.4039 125.629 26.5704 125.771 26.7454C125.97 26.9485 126.148 27.1531 126.305 27.3563C126.461 27.5595 126.61 27.7782 126.754 28.011C126.896 28.3017 127.002 28.5133 127.074 28.6446C127.144 28.7758 127.252 28.9719 127.394 29.2344C127.507 29.5546 127.593 29.7875 127.65 29.9328C127.707 30.0781 127.793 30.3109 127.907 30.6312C127.964 30.8641 128.006 31.032 128.035 31.1336C128.063 31.2366 128.106 31.4031 128.164 31.6359C128.191 31.8405 128.213 31.9999 128.227 32.1156C128.241 32.2327 128.263 32.3922 128.291 32.5953C128.347 32.7999 128.383 33.0102 128.397 33.2289C128.411 33.4476 128.418 33.6733 128.418 33.9062C128.445 34.0811 128.46 34.2631 128.46 34.4522V36.9624H114.714L115.226 36.0452C115.168 36.5109 115.154 36.9483 115.183 37.3546C115.211 37.7624 115.269 38.1265 115.355 38.4453C115.44 38.8813 115.553 39.2172 115.697 39.45C115.782 39.6249 115.875 39.7844 115.974 39.9297C116.073 40.075 116.195 40.2204 116.337 40.3657C116.45 40.4828 116.565 40.5844 116.678 40.6719C116.791 40.7594 116.905 40.8469 117.02 40.9343C117.162 41.0218 117.319 41.1022 117.489 41.1742C117.66 41.2476 117.831 41.2984 118.001 41.3266C118.172 41.3859 118.364 41.4211 118.578 41.4352C118.791 41.4508 118.997 41.4578 119.197 41.4578C119.397 41.4578 119.581 41.4508 119.752 41.4352C119.923 41.4211 120.094 41.3986 120.264 41.3703C120.662 41.2546 120.96 41.1516 121.16 41.0656C121.273 41.0077 121.388 40.9414 121.503 40.8694C121.616 40.7975 121.716 40.7312 121.802 40.6733C121.944 40.5576 122.129 40.353 122.357 40.0623C122.442 39.9466 122.519 39.8295 122.591 39.7124C122.661 39.5967 122.713 39.4796 122.74 39.3639C122.768 39.2482 122.797 39.124 122.826 38.9928C122.853 38.8616 122.882 38.7247 122.911 38.578H128.332C128.303 39.2186 128.231 39.8154 128.118 40.3671C128.004 40.9202 127.848 41.4296 127.649 41.8952C127.365 42.478 127.122 42.8843 126.923 43.1172C126.781 43.3217 126.624 43.5249 126.454 43.7281C126.283 43.9313 126.098 44.1204 125.9 44.2953C125.672 44.4703 125.444 44.6453 125.217 44.8188C125.017 44.9641 124.804 45.0954 124.576 45.2111C124.349 45.3282 124.121 45.4439 123.894 45.561C123.695 45.6485 123.538 45.7134 123.424 45.7571C123.31 45.8009 123.154 45.8658 122.955 45.9533C122.841 46.0125 122.714 46.0563 122.572 46.0845C122.43 46.1141 122.288 46.1423 122.145 46.172C121.918 46.2298 121.69 46.2736 121.462 46.3032C121.235 46.3314 121.007 46.361 120.78 46.3907C120.552 46.4189 120.31 46.4415 120.054 46.4556C119.797 46.4697 119.527 46.4767 119.243 46.4767H118.58C118.366 46.4767 118.146 46.4626 117.918 46.433C117.69 46.4034 117.47 46.3737 117.256 46.3455C117.042 46.3159 116.835 46.2721 116.636 46.2143C116.409 46.1564 116.231 46.1127 116.102 46.0831C115.974 46.0548 115.796 46.0111 115.568 45.9518C115.368 45.8644 115.163 45.7853 114.949 45.712C114.735 45.64 114.528 45.5441 114.329 45.4284C114.102 45.283 113.874 45.1377 113.646 44.9924C113.419 44.847 113.191 44.7017 112.964 44.5564C112.765 44.3814 112.623 44.2502 112.537 44.1641C112.452 44.0766 112.31 43.9454 112.111 43.7719C111.996 43.6562 111.89 43.532 111.791 43.4008C111.69 43.2695 111.584 43.1327 111.471 42.9859C111.329 42.811 111.2 42.6219 111.087 42.4187C110.973 42.2155 110.859 42.0109 110.746 41.8077C110.603 41.5749 110.483 41.3351 110.383 41.0881C110.283 40.8412 110.192 40.5858 110.106 40.3248C110.021 40.092 109.942 39.8451 109.872 39.5826C109.8 39.3202 109.75 39.0591 109.723 38.7967C109.665 38.5342 109.622 38.2732 109.594 38.0108C109.565 37.7483 109.536 37.4732 109.509 37.1811C109.48 36.8904 109.459 36.5998 109.445 36.3077C109.43 36.017 109.425 35.7263 109.425 35.4343C109.425 34.8826 109.445 34.3365 109.488 33.7975H109.485ZM116.337 33.5576H122.697C122.697 33.267 122.677 32.9834 122.634 32.7068C122.591 32.4303 122.541 32.1608 122.485 31.8997C122.427 31.5794 122.341 31.2888 122.228 31.0263C122.114 30.7639 121.987 30.5169 121.845 30.2841C121.645 29.9638 121.41 29.6943 121.14 29.477C120.869 29.2583 120.563 29.0989 120.222 28.9973C119.88 28.8957 119.51 28.8449 119.113 28.8449C118.743 28.8449 118.329 28.9028 117.875 29.0199C117.562 29.137 117.271 29.2894 117.001 29.4785C116.73 29.6675 116.48 29.8933 116.254 30.1557C116.055 30.4464 115.884 30.7596 115.742 31.094C115.6 31.4285 115.493 31.808 115.422 32.2285C115.35 32.6504 115.316 33.0948 115.316 33.5605H116.341L116.337 33.5576Z"/>
</mask>
<path d="M109.485 33.7975C109.528 33.2599 109.592 32.7435 109.677 32.2482C109.734 31.9576 109.805 31.6669 109.891 31.3748C109.976 31.0842 110.062 30.7935 110.148 30.5014C110.261 30.1811 110.382 29.8608 110.51 29.5405C110.639 29.2202 110.788 28.9155 110.959 28.6234C111.13 28.2735 111.342 27.932 111.599 27.5976C111.856 27.2632 112.125 26.9499 112.41 26.6593C112.609 26.4561 112.83 26.2515 113.073 26.0483C113.314 25.8451 113.549 25.6702 113.776 25.5248C114.004 25.3795 114.238 25.2412 114.481 25.11C114.723 24.9788 114.972 24.856 115.228 24.7389C115.541 24.5936 115.854 24.4765 116.167 24.389C116.48 24.3015 116.807 24.2437 117.15 24.214C117.463 24.1562 117.783 24.1124 118.11 24.0828C118.437 24.0546 118.772 24.0391 119.113 24.0391C119.71 24.0391 120.287 24.0828 120.842 24.1703C121.396 24.2578 121.915 24.389 122.399 24.5625C122.855 24.7375 123.281 24.9266 123.68 25.1298C124.078 25.3329 124.433 25.5658 124.748 25.8282C124.946 25.9453 125.131 26.0836 125.302 26.243C125.473 26.4039 125.629 26.5704 125.771 26.7454C125.97 26.9485 126.148 27.1531 126.305 27.3563C126.461 27.5595 126.61 27.7782 126.754 28.011C126.896 28.3017 127.002 28.5133 127.074 28.6446C127.144 28.7758 127.252 28.9719 127.394 29.2344C127.507 29.5546 127.593 29.7875 127.65 29.9328C127.707 30.0781 127.793 30.3109 127.907 30.6312C127.964 30.8641 128.006 31.032 128.035 31.1336C128.063 31.2366 128.106 31.4031 128.164 31.6359C128.191 31.8405 128.213 31.9999 128.227 32.1156C128.241 32.2327 128.263 32.3922 128.291 32.5953C128.347 32.7999 128.383 33.0102 128.397 33.2289C128.411 33.4476 128.418 33.6733 128.418 33.9062C128.445 34.0811 128.46 34.2631 128.46 34.4522V36.9624H114.714L115.226 36.0452C115.168 36.5109 115.154 36.9483 115.183 37.3546C115.211 37.7624 115.269 38.1265 115.355 38.4453C115.44 38.8813 115.553 39.2172 115.697 39.45C115.782 39.6249 115.875 39.7844 115.974 39.9297C116.073 40.075 116.195 40.2204 116.337 40.3657C116.45 40.4828 116.565 40.5844 116.678 40.6719C116.791 40.7594 116.905 40.8469 117.02 40.9343C117.162 41.0218 117.319 41.1022 117.489 41.1742C117.66 41.2476 117.831 41.2984 118.001 41.3266C118.172 41.3859 118.364 41.4211 118.578 41.4352C118.791 41.4508 118.997 41.4578 119.197 41.4578C119.397 41.4578 119.581 41.4508 119.752 41.4352C119.923 41.4211 120.094 41.3986 120.264 41.3703C120.662 41.2546 120.96 41.1516 121.16 41.0656C121.273 41.0077 121.388 40.9414 121.503 40.8694C121.616 40.7975 121.716 40.7312 121.802 40.6733C121.944 40.5576 122.129 40.353 122.357 40.0623C122.442 39.9466 122.519 39.8295 122.591 39.7124C122.661 39.5967 122.713 39.4796 122.74 39.3639C122.768 39.2482 122.797 39.124 122.826 38.9928C122.853 38.8616 122.882 38.7247 122.911 38.578H128.332C128.303 39.2186 128.231 39.8154 128.118 40.3671C128.004 40.9202 127.848 41.4296 127.649 41.8952C127.365 42.478 127.122 42.8843 126.923 43.1172C126.781 43.3217 126.624 43.5249 126.454 43.7281C126.283 43.9313 126.098 44.1204 125.9 44.2953C125.672 44.4703 125.444 44.6453 125.217 44.8188C125.017 44.9641 124.804 45.0954 124.576 45.2111C124.349 45.3282 124.121 45.4439 123.894 45.561C123.695 45.6485 123.538 45.7134 123.424 45.7571C123.31 45.8009 123.154 45.8658 122.955 45.9533C122.841 46.0125 122.714 46.0563 122.572 46.0845C122.43 46.1141 122.288 46.1423 122.145 46.172C121.918 46.2298 121.69 46.2736 121.462 46.3032C121.235 46.3314 121.007 46.361 120.78 46.3907C120.552 46.4189 120.31 46.4415 120.054 46.4556C119.797 46.4697 119.527 46.4767 119.243 46.4767H118.58C118.366 46.4767 118.146 46.4626 117.918 46.433C117.69 46.4034 117.47 46.3737 117.256 46.3455C117.042 46.3159 116.835 46.2721 116.636 46.2143C116.409 46.1564 116.231 46.1127 116.102 46.0831C115.974 46.0548 115.796 46.0111 115.568 45.9518C115.368 45.8644 115.163 45.7853 114.949 45.712C114.735 45.64 114.528 45.5441 114.329 45.4284C114.102 45.283 113.874 45.1377 113.646 44.9924C113.419 44.847 113.191 44.7017 112.964 44.5564C112.765 44.3814 112.623 44.2502 112.537 44.1641C112.452 44.0766 112.31 43.9454 112.111 43.7719C111.996 43.6562 111.89 43.532 111.791 43.4008C111.69 43.2695 111.584 43.1327 111.471 42.9859C111.329 42.811 111.2 42.6219 111.087 42.4187C110.973 42.2155 110.859 42.0109 110.746 41.8077C110.603 41.5749 110.483 41.3351 110.383 41.0881C110.283 40.8412 110.192 40.5858 110.106 40.3248C110.021 40.092 109.942 39.8451 109.872 39.5826C109.8 39.3202 109.75 39.0591 109.723 38.7967C109.665 38.5342 109.622 38.2732 109.594 38.0108C109.565 37.7483 109.536 37.4732 109.509 37.1811C109.48 36.8904 109.459 36.5998 109.445 36.3077C109.43 36.017 109.425 35.7263 109.425 35.4343C109.425 34.8826 109.445 34.3365 109.488 33.7975H109.485ZM116.337 33.5576H122.697C122.697 33.267 122.677 32.9834 122.634 32.7068C122.591 32.4303 122.541 32.1608 122.485 31.8997C122.427 31.5794 122.341 31.2888 122.228 31.0263C122.114 30.7639 121.987 30.5169 121.845 30.2841C121.645 29.9638 121.41 29.6943 121.14 29.477C120.869 29.2583 120.563 29.0989 120.222 28.9973C119.88 28.8957 119.51 28.8449 119.113 28.8449C118.743 28.8449 118.329 28.9028 117.875 29.0199C117.562 29.137 117.271 29.2894 117.001 29.4785C116.73 29.6675 116.48 29.8933 116.254 30.1557C116.055 30.4464 115.884 30.7596 115.742 31.094C115.6 31.4285 115.493 31.808 115.422 32.2285C115.35 32.6504 115.316 33.0948 115.316 33.5605H116.341L116.337 33.5576Z" fill="white"/>
<path d="M109.485 33.7975C109.528 33.2599 109.592 32.7435 109.677 32.2482C109.734 31.9576 109.805 31.6669 109.891 31.3748C109.976 31.0842 110.062 30.7935 110.148 30.5014C110.261 30.1811 110.382 29.8608 110.51 29.5405C110.639 29.2202 110.788 28.9155 110.959 28.6234C111.13 28.2735 111.342 27.932 111.599 27.5976C111.856 27.2632 112.125 26.9499 112.41 26.6593C112.609 26.4561 112.83 26.2515 113.073 26.0483C113.314 25.8451 113.549 25.6702 113.776 25.5248C114.004 25.3795 114.238 25.2412 114.481 25.11C114.723 24.9788 114.972 24.856 115.228 24.7389C115.541 24.5936 115.854 24.4765 116.167 24.389C116.48 24.3015 116.807 24.2437 117.15 24.214C117.463 24.1562 117.783 24.1124 118.11 24.0828C118.437 24.0546 118.772 24.0391 119.113 24.0391C119.71 24.0391 120.287 24.0828 120.842 24.1703C121.396 24.2578 121.915 24.389 122.399 24.5625C122.855 24.7375 123.281 24.9266 123.68 25.1298C124.078 25.3329 124.433 25.5658 124.748 25.8282C124.946 25.9453 125.131 26.0836 125.302 26.243C125.473 26.4039 125.629 26.5704 125.771 26.7454C125.97 26.9485 126.148 27.1531 126.305 27.3563C126.461 27.5595 126.61 27.7782 126.754 28.011C126.896 28.3017 127.002 28.5133 127.074 28.6446C127.144 28.7758 127.252 28.9719 127.394 29.2344C127.507 29.5546 127.593 29.7875 127.65 29.9328C127.707 30.0781 127.793 30.3109 127.907 30.6312C127.964 30.8641 128.006 31.032 128.035 31.1336C128.063 31.2366 128.106 31.4031 128.164 31.6359C128.191 31.8405 128.213 31.9999 128.227 32.1156C128.241 32.2327 128.263 32.3922 128.291 32.5953C128.347 32.7999 128.383 33.0102 128.397 33.2289C128.411 33.4476 128.418 33.6733 128.418 33.9062C128.445 34.0811 128.46 34.2631 128.46 34.4522V36.9624H114.714L115.226 36.0452C115.168 36.5109 115.154 36.9483 115.183 37.3546C115.211 37.7624 115.269 38.1265 115.355 38.4453C115.44 38.8813 115.553 39.2172 115.697 39.45C115.782 39.6249 115.875 39.7844 115.974 39.9297C116.073 40.075 116.195 40.2204 116.337 40.3657C116.45 40.4828 116.565 40.5844 116.678 40.6719C116.791 40.7594 116.905 40.8469 117.02 40.9343C117.162 41.0218 117.319 41.1022 117.489 41.1742C117.66 41.2476 117.831 41.2984 118.001 41.3266C118.172 41.3859 118.364 41.4211 118.578 41.4352C118.791 41.4508 118.997 41.4578 119.197 41.4578C119.397 41.4578 119.581 41.4508 119.752 41.4352C119.923 41.4211 120.094 41.3986 120.264 41.3703C120.662 41.2546 120.96 41.1516 121.16 41.0656C121.273 41.0077 121.388 40.9414 121.503 40.8694C121.616 40.7975 121.716 40.7312 121.802 40.6733C121.944 40.5576 122.129 40.353 122.357 40.0623C122.442 39.9466 122.519 39.8295 122.591 39.7124C122.661 39.5967 122.713 39.4796 122.74 39.3639C122.768 39.2482 122.797 39.124 122.826 38.9928C122.853 38.8616 122.882 38.7247 122.911 38.578H128.332C128.303 39.2186 128.231 39.8154 128.118 40.3671C128.004 40.9202 127.848 41.4296 127.649 41.8952C127.365 42.478 127.122 42.8843 126.923 43.1172C126.781 43.3217 126.624 43.5249 126.454 43.7281C126.283 43.9313 126.098 44.1204 125.9 44.2953C125.672 44.4703 125.444 44.6453 125.217 44.8188C125.017 44.9641 124.804 45.0954 124.576 45.2111C124.349 45.3282 124.121 45.4439 123.894 45.561C123.695 45.6485 123.538 45.7134 123.424 45.7571C123.31 45.8009 123.154 45.8658 122.955 45.9533C122.841 46.0125 122.714 46.0563 122.572 46.0845C122.43 46.1141 122.288 46.1423 122.145 46.172C121.918 46.2298 121.69 46.2736 121.462 46.3032C121.235 46.3314 121.007 46.361 120.78 46.3907C120.552 46.4189 120.31 46.4415 120.054 46.4556C119.797 46.4697 119.527 46.4767 119.243 46.4767H118.58C118.366 46.4767 118.146 46.4626 117.918 46.433C117.69 46.4034 117.47 46.3737 117.256 46.3455C117.042 46.3159 116.835 46.2721 116.636 46.2143C116.409 46.1564 116.231 46.1127 116.102 46.0831C115.974 46.0548 115.796 46.0111 115.568 45.9518C115.368 45.8644 115.163 45.7853 114.949 45.712C114.735 45.64 114.528 45.5441 114.329 45.4284C114.102 45.283 113.874 45.1377 113.646 44.9924C113.419 44.847 113.191 44.7017 112.964 44.5564C112.765 44.3814 112.623 44.2502 112.537 44.1641C112.452 44.0766 112.31 43.9454 112.111 43.7719C111.996 43.6562 111.89 43.532 111.791 43.4008C111.69 43.2695 111.584 43.1327 111.471 42.9859C111.329 42.811 111.2 42.6219 111.087 42.4187C110.973 42.2155 110.859 42.0109 110.746 41.8077C110.603 41.5749 110.483 41.3351 110.383 41.0881C110.283 40.8412 110.192 40.5858 110.106 40.3248C110.021 40.092 109.942 39.8451 109.872 39.5826C109.8 39.3202 109.75 39.0591 109.723 38.7967C109.665 38.5342 109.622 38.2732 109.594 38.0108C109.565 37.7483 109.536 37.4732 109.509 37.1811C109.48 36.8904 109.459 36.5998 109.445 36.3077C109.43 36.017 109.425 35.7263 109.425 35.4343C109.425 34.8826 109.445 34.3365 109.488 33.7975H109.485ZM116.337 33.5576H122.697C122.697 33.267 122.677 32.9834 122.634 32.7068C122.591 32.4303 122.541 32.1608 122.485 31.8997C122.427 31.5794 122.341 31.2888 122.228 31.0263C122.114 30.7639 121.987 30.5169 121.845 30.2841C121.645 29.9638 121.41 29.6943 121.14 29.477C120.869 29.2583 120.563 29.0989 120.222 28.9973C119.88 28.8957 119.51 28.8449 119.113 28.8449C118.743 28.8449 118.329 28.9028 117.875 29.0199C117.562 29.137 117.271 29.2894 117.001 29.4785C116.73 29.6675 116.48 29.8933 116.254 30.1557C116.055 30.4464 115.884 30.7596 115.742 31.094C115.6 31.4285 115.493 31.808 115.422 32.2285C115.35 32.6504 115.316 33.0948 115.316 33.5605H116.341L116.337 33.5576Z" stroke="black" stroke-width="2" mask="url(#path-8-outside-3_655_11335)"/>
</g>
<g filter="url(#filter5_d_655_11335)">
<path d="M131.511 45.8026V24.3456H136.889V27.794H137.743C137.828 27.6191 137.885 27.4822 137.914 27.3792C137.942 27.2776 137.999 27.1393 138.085 26.9644C138.171 26.7894 138.241 26.6667 138.299 26.5933C138.355 26.5213 138.427 26.3972 138.513 26.2222C138.626 26.0769 138.747 25.9315 138.876 25.7862C139.004 25.6409 139.138 25.4955 139.281 25.3502C139.509 25.1752 139.723 25.0003 139.921 24.8267C140.235 24.6235 140.604 24.4486 141.031 24.3032C141.287 24.2454 141.543 24.1946 141.799 24.1508C142.056 24.1071 142.325 24.0859 142.61 24.0859C142.809 24.1156 142.951 24.1297 143.037 24.1297C143.122 24.1297 143.264 24.1452 143.463 24.1734C143.72 24.2327 143.905 24.268 144.018 24.2821C144.131 24.2976 144.317 24.3329 144.572 24.3907V30.022C144.316 29.9345 144.052 29.8555 143.783 29.7821C143.513 29.7102 143.249 29.658 142.994 29.6297C142.851 29.6015 142.702 29.5789 142.546 29.5648C142.388 29.5507 142.239 29.5437 142.097 29.5437C141.356 29.5437 140.673 29.689 140.048 29.9797C139.422 30.2717 138.896 30.7219 138.469 31.3328C138.07 31.8859 137.764 32.5844 137.551 33.4281C137.337 34.2733 137.231 35.2328 137.231 36.3094V46.1751H131.511V45.804V45.8026Z" fill="white"/>
<path d="M131.011 23.8456H131.511H136.889H137.389V24.3456V27.294H137.416C137.423 27.2746 137.429 27.2579 137.433 27.2438L137.611 27.294H137.743V27.3311L137.914 27.3792M131.011 23.8456L136.889 27.294V24.8456V24.3456H136.389H132.011H131.511V24.8456V45.6751V45.8026V45.804V46.1751H132.011H136.731H137.231V45.6751V36.3094C137.231 35.2328 137.337 34.2733 137.551 33.4281C137.764 32.5844 138.07 31.8859 138.469 31.3328C138.896 30.7219 139.422 30.2717 140.048 29.9797M131.011 23.8456V24.3456V45.8026V45.804V46.1751V46.6751H131.511H137.231H137.731V46.1751V36.3094C137.731 35.2647 137.834 34.3477 138.036 33.5508L138.036 33.5502C138.237 32.7518 138.521 32.1153 138.874 31.6252L138.874 31.6252L138.878 31.6196C139.26 31.0748 139.719 30.685 140.259 30.4329M131.011 23.8456L140.259 30.4329M137.914 27.3792L137.743 27.3327V27.794M137.914 27.3792C137.885 27.4822 137.828 27.6191 137.743 27.794M137.914 27.3792C137.942 27.2776 137.999 27.1393 138.085 26.9644C138.171 26.7894 138.241 26.6667 138.299 26.5933M137.743 27.794L137.389 27.6209V27.794H137.743ZM138.299 26.5933C138.355 26.5213 138.427 26.3972 138.513 26.2222C138.626 26.0769 138.747 25.9315 138.876 25.7862C139.004 25.6409 139.138 25.4955 139.281 25.3502C139.509 25.1752 139.723 25.0003 139.921 24.8267C140.235 24.6235 140.604 24.4486 141.031 24.3032C141.287 24.2454 141.543 24.1946 141.799 24.1508C142.056 24.1071 142.325 24.0859 142.61 24.0859C142.809 24.1156 142.951 24.1297 143.037 24.1297C143.122 24.1297 143.264 24.1452 143.463 24.1734C143.72 24.2327 143.905 24.268 144.018 24.2821C144.131 24.2976 144.317 24.3329 144.572 24.3907V29.4951C144.626 29.5126 144.68 29.5305 144.734 29.5487L144.572 30.022H144.072V29.8639C143.977 29.8358 143.88 29.8086 143.783 29.7821C143.513 29.7102 143.249 29.658 142.994 29.6297C142.851 29.6015 142.702 29.5789 142.546 29.5648M138.299 26.5933L137.906 26.2843C137.906 26.2842 137.906 26.2842 137.906 26.2841C137.928 26.2559 137.981 26.172 138.064 26.0026L138.086 25.956L138.118 25.915C138.239 25.7605 138.367 25.6072 138.501 25.4553C138.634 25.3046 138.774 25.1522 138.925 24.9989L138.949 24.9746L138.977 24.9538C139.197 24.7847 139.402 24.6163 139.592 24.4502L139.619 24.4267L139.649 24.4072C140.003 24.1778 140.411 23.9862 140.869 23.83L140.895 23.8213L140.921 23.8155C141.186 23.7558 141.449 23.7032 141.715 23.658C142.003 23.6089 142.3 23.5859 142.61 23.5859H142.648L142.684 23.5914C142.88 23.6206 142.991 23.6297 143.037 23.6297C143.163 23.6297 143.339 23.6507 143.533 23.6784L143.555 23.6814L143.576 23.6862C143.828 23.7446 143.993 23.7751 144.08 23.7859L144.086 23.7867L144.086 23.7867C144.22 23.8051 144.423 23.8441 144.683 23.9031L145.072 23.9914V24.3907V30.022V30.7207L144.411 30.4953C144.167 30.412 143.914 30.336 143.653 30.2649C143.403 30.1984 143.165 30.1517 142.939 30.1267L142.918 30.1244L142.898 30.1203C142.769 30.095 142.637 30.0752 142.501 30.0628L142.546 29.5648M138.299 26.5933L140.259 30.4329M142.546 29.5648C142.388 29.5507 142.239 29.5437 142.097 29.5437C141.356 29.5437 140.673 29.689 140.048 29.9797M142.546 29.5648L142.501 30.0628C142.357 30.0499 142.223 30.0437 142.097 30.0437C141.424 30.0437 140.813 30.1753 140.259 30.4329M140.048 29.9797L140.259 30.433C140.259 30.433 140.259 30.433 140.259 30.4329M140.048 29.9797L140.26 30.4328C140.26 30.4329 140.26 30.4329 140.259 30.4329" stroke="black"/>
</g>
<g filter="url(#filter6_d_655_11335)">
<path d="M148.411 21.9228C148.226 21.9087 148.048 21.8861 147.877 21.8579C147.762 21.8297 147.649 21.8001 147.536 21.7704C147.422 21.7422 147.308 21.6985 147.194 21.6392C147.108 21.611 147.037 21.5814 146.98 21.5517C146.922 21.5235 146.852 21.4939 146.766 21.4643C146.652 21.3486 146.525 21.2455 146.383 21.1581C146.297 21.0706 146.234 21.0057 146.191 20.9619C146.148 20.9182 146.085 20.8533 145.999 20.7658C145.914 20.6501 145.857 20.5626 145.828 20.5034C145.799 20.4455 145.742 20.358 145.657 20.2409C145.599 20.1252 145.564 20.0448 145.551 20.001C145.536 19.9573 145.501 19.8769 145.444 19.7612C145.415 19.6158 145.387 19.5072 145.359 19.4338C145.33 19.3619 145.301 19.2532 145.273 19.1065C145.273 19.019 145.266 18.9541 145.253 18.9103C145.237 18.8666 145.232 18.8017 145.232 18.7142C145.203 18.6267 145.189 18.5463 145.189 18.4744V18.2345C145.189 17.9438 145.203 17.7251 145.232 17.5798C145.232 17.4641 145.239 17.347 145.253 17.2299C145.266 17.1142 145.302 16.997 145.359 16.8799C145.415 16.7346 145.458 16.633 145.487 16.5737C145.515 16.5159 145.558 16.4143 145.616 16.269C145.701 16.1533 145.758 16.0658 145.787 16.0065C145.814 15.9487 145.872 15.8612 145.958 15.7441C145.985 15.6862 146.028 15.6284 146.086 15.5691C146.144 15.5098 146.199 15.4675 146.257 15.4379C146.314 15.3504 146.428 15.2488 146.598 15.1317C146.711 15.0738 146.79 15.0301 146.832 15.0005C146.875 14.9723 146.954 14.9285 147.067 14.8693C147.153 14.8114 147.281 14.7536 147.451 14.6943C147.649 14.6364 147.834 14.5927 148.005 14.5631C148.147 14.5348 148.305 14.5123 148.474 14.4982C148.645 14.4841 148.816 14.4756 148.986 14.4756C149.156 14.4756 149.327 14.4911 149.498 14.5193C149.669 14.549 149.84 14.5772 150.01 14.6068C150.351 14.7239 150.607 14.8255 150.778 14.9116C150.864 14.9708 150.921 15.0061 150.949 15.0202C150.977 15.0358 151.035 15.071 151.121 15.1289C151.206 15.2164 151.276 15.2742 151.334 15.3038C151.391 15.3335 151.463 15.3913 151.548 15.4788C151.634 15.5663 151.69 15.6397 151.719 15.6975C151.747 15.7568 151.805 15.8287 151.89 15.9162C151.976 16.0333 152.062 16.1631 152.147 16.3085C152.204 16.396 152.246 16.4975 152.275 16.6147C152.332 16.7021 152.389 16.8616 152.446 17.0944C152.474 17.1819 152.496 17.2694 152.51 17.3568C152.524 17.4443 152.531 17.5473 152.531 17.663C152.558 17.7505 152.573 17.845 152.573 17.9466V18.6013C152.573 18.7326 152.558 18.8567 152.531 18.9724C152.502 19.0895 152.481 19.1841 152.467 19.256C152.452 19.3294 152.431 19.424 152.404 19.5397C152.346 19.6864 152.311 19.788 152.297 19.8458C152.282 19.9051 152.248 20.0067 152.191 20.152C152.133 20.2395 152.09 20.3044 152.063 20.3482C152.034 20.3919 151.991 20.4568 151.935 20.5443C151.849 20.6614 151.75 20.7771 151.635 20.8942C151.55 20.9817 151.478 21.0466 151.421 21.0903C151.363 21.1341 151.293 21.199 151.207 21.2865C151.064 21.3739 150.922 21.4614 150.781 21.5489C150.667 21.5785 150.554 21.6223 150.44 21.6801C150.24 21.738 150.042 21.7972 149.843 21.8551C149.701 21.8847 149.559 21.9059 149.417 21.92C149.275 21.9355 149.132 21.9412 148.99 21.9412C148.79 21.9412 148.598 21.9341 148.414 21.92L148.411 21.9228ZM146.042 45.7588V24.3455H151.762V46.1736H146.042V45.7588Z" fill="white"/>
<path d="M148.605 22.4391L148.373 22.4214C148.172 22.406 147.979 22.3816 147.795 22.3513L147.776 22.3481L147.757 22.3434C147.64 22.3144 147.524 22.2842 147.413 22.255C147.27 22.2194 147.133 22.1672 147 22.1014C146.913 22.0712 146.83 22.0372 146.756 21.9987C146.718 21.9805 146.668 21.9593 146.603 21.9367L146.493 21.8986L146.411 21.816C146.322 21.7264 146.226 21.6489 146.121 21.5839L146.068 21.5516L146.025 21.5076L145.913 21.3932L145.833 21.3115L145.754 21.2298L145.642 21.1154L145.618 21.0908L145.597 21.0631C145.508 20.9425 145.429 20.825 145.379 20.723L145.828 20.5034M148.605 22.4391L145.958 15.7441C145.872 15.8612 145.814 15.9487 145.787 16.0065L145.337 15.7869C145.337 15.7871 145.337 15.7874 145.337 15.7877C145.334 15.7932 145.325 15.811 145.303 15.8439C145.282 15.8771 145.252 15.9195 145.213 15.9717L145.175 16.0237L145.151 16.0838C145.094 16.2273 145.057 16.3147 145.037 16.3568C145 16.433 144.953 16.5443 144.9 16.6815C144.827 16.8359 144.777 16.9998 144.756 17.1706L144.756 17.1714C144.742 17.2919 144.734 17.4128 144.732 17.5329C144.7 17.7219 144.689 17.9624 144.689 18.2345V18.4744C144.689 18.5814 144.705 18.6877 144.733 18.7911C144.736 18.866 144.745 18.957 144.771 19.0457C144.772 19.0565 144.773 19.076 144.773 19.1065V19.1531L144.782 19.1989C144.811 19.3541 144.846 19.4976 144.892 19.6135C144.906 19.6512 144.928 19.7287 144.954 19.8589L144.967 19.9225L144.995 19.9808C145.021 20.0339 145.041 20.0766 145.055 20.1092C145.068 20.1382 145.075 20.1551 145.077 20.1621C145.105 20.2448 145.153 20.3509 145.21 20.4648L145.229 20.5021L145.253 20.5358C145.292 20.5893 145.322 20.6328 145.345 20.667C145.368 20.7027 145.378 20.7217 145.381 20.7273L145.828 20.5034M148.605 22.4391L148.611 22.4328M148.605 22.4391L148.611 22.4328M145.828 20.5034C145.857 20.5626 145.914 20.6501 145.999 20.7658L145.551 20.001C145.564 20.0448 145.599 20.1252 145.657 20.2409C145.742 20.358 145.799 20.4455 145.828 20.5034ZM149.468 22.4173C149.626 22.4016 149.785 22.3779 149.945 22.3446L149.964 22.3406L149.983 22.3352C150.073 22.3088 150.161 22.2831 150.247 22.2576C150.357 22.2252 150.466 22.1932 150.579 22.1605L150.625 22.1471L150.668 22.1253C150.752 22.0826 150.83 22.0526 150.906 22.033L150.98 22.0139L151.045 21.9736C151.185 21.8868 151.325 21.8001 151.468 21.7134L151.521 21.6808L151.565 21.636C151.644 21.5548 151.694 21.5107 151.723 21.4894L151.723 21.4894L151.727 21.4859C151.808 21.4232 151.898 21.3409 151.993 21.2438C152.121 21.1124 152.237 20.9785 152.338 20.8392L152.347 20.8277L152.354 20.8158C152.41 20.7302 152.452 20.6669 152.48 20.6243L152.48 20.6243L152.486 20.6149C152.51 20.5769 152.549 20.517 152.608 20.4281L152.638 20.3834L152.657 20.3334C152.715 20.185 152.759 20.06 152.782 19.9699L152.782 19.9699L152.784 19.9618C152.785 19.9559 152.791 19.9336 152.807 19.8892C152.821 19.8469 152.842 19.792 152.869 19.7233L152.882 19.6902L152.89 19.6556C152.919 19.535 152.941 19.4356 152.957 19.3573L152.957 19.3573L152.958 19.3502C152.97 19.2888 152.989 19.2031 153.016 19.0925L153.016 19.0925L153.017 19.0884C153.054 18.9344 153.073 18.7713 153.073 18.6013V17.9466C153.073 17.8234 153.058 17.7048 153.03 17.5915C153.027 17.4828 153.019 17.3774 153.004 17.2789C152.986 17.167 152.959 17.06 152.928 16.9591C152.879 16.7656 152.821 16.5739 152.741 16.4221C152.702 16.2892 152.647 16.1631 152.573 16.0467C152.481 15.8911 152.388 15.7501 152.294 15.6213L152.273 15.5923L152.248 15.5666C152.213 15.5306 152.19 15.5045 152.176 15.4868C152.172 15.4816 152.169 15.4778 152.167 15.4755L152.166 15.4736C152.103 15.3472 152.005 15.2302 151.906 15.1292C151.808 15.0293 151.694 14.9281 151.569 14.8622C151.567 14.8606 151.562 14.8571 151.555 14.8513C151.537 14.8371 151.512 14.8142 151.478 14.7793L151.443 14.7431L151.401 14.7147C151.308 14.6522 151.238 14.6089 151.195 14.5844L151.182 14.5772L151.174 14.5733C151.174 14.5732 151.174 14.5732 151.174 14.5732C151.17 14.5709 151.163 14.5668 151.152 14.5602C151.132 14.5471 151.102 14.5276 151.063 14.5006L151.034 14.4807L151.003 14.4649C150.801 14.3634 150.519 14.2531 150.172 14.134L150.135 14.1211L150.096 14.1143C150.007 14.0987 149.91 14.0823 149.815 14.0662C149.735 14.0526 149.656 14.0393 149.583 14.0267L149.583 14.0266L149.579 14.026C149.385 13.9939 149.186 13.9756 148.986 13.9756C148.8 13.9756 148.615 13.9849 148.433 13.9999L148.433 13.9999C148.247 14.0153 148.073 14.04 147.914 14.0715C147.723 14.1048 147.522 14.1528 147.311 14.2142L147.298 14.2179L147.286 14.2222C147.115 14.282 146.948 14.3515 146.813 14.4377C146.711 14.4916 146.619 14.5419 146.557 14.5831L146.557 14.583L146.548 14.5895C146.548 14.5895 146.548 14.5895 146.548 14.5895C146.547 14.5897 146.543 14.5923 146.535 14.5976C146.526 14.603 146.514 14.6101 146.498 14.619C146.466 14.6368 146.424 14.6592 146.37 14.6865L146.341 14.7015L146.314 14.7202C146.174 14.817 146.029 14.9296 145.918 15.059C145.848 15.1066 145.786 15.1611 145.729 15.2195C145.656 15.294 145.586 15.3803 145.531 15.4806L148.771 22.2697L148.768 22.2726L148.611 22.4328M149.468 22.4173C149.468 22.4174 149.467 22.4175 149.466 22.4176L149.417 21.92L149.471 22.417C149.47 22.4171 149.469 22.4172 149.468 22.4173ZM149.468 22.4173C149.305 22.4351 149.145 22.4412 148.99 22.4412C148.861 22.4412 148.735 22.4384 148.611 22.4328M146.042 23.8455H145.542V24.3455V45.7588V46.1736V46.6736H146.042H151.762H152.262V46.1736V24.3455V23.8455H151.762H146.042Z" stroke="black"/>
</g>
<g filter="url(#filter7_d_655_11335)">
<path d="M154.625 34.1253C154.639 33.7754 154.661 33.4424 154.688 33.1207C154.745 32.83 154.781 32.6184 154.795 32.4871C154.809 32.3559 154.844 32.1457 154.901 31.8536C154.929 31.6208 154.98 31.388 155.05 31.1552C155.12 30.9223 155.199 30.7036 155.285 30.5005C155.341 30.2676 155.413 30.0489 155.498 29.8458C155.584 29.6426 155.669 29.438 155.755 29.2348C155.926 28.8566 156.118 28.4926 156.332 28.1427C156.546 27.7927 156.765 27.4598 156.994 27.138C157.222 26.8474 157.463 26.5708 157.72 26.3084C157.976 26.0459 158.245 25.799 158.531 25.5662C159.015 25.2163 159.527 24.9115 160.068 24.649C160.551 24.4459 161.05 24.2935 161.562 24.1905C162.074 24.0889 162.587 24.0381 163.099 24.0381C163.383 24.0381 163.654 24.0536 163.91 24.0818C164.167 24.1115 164.409 24.1552 164.636 24.2131C164.807 24.2427 164.977 24.2864 165.148 24.3443C165.319 24.4035 165.49 24.4614 165.66 24.5192C165.944 24.6363 166.208 24.7591 166.449 24.8903C166.691 25.0216 166.911 25.1739 167.111 25.3489C167.425 25.6113 167.702 25.9091 167.943 26.2435C168.185 26.5779 168.406 26.9349 168.606 27.313H169.46V24.3443H175.265V46.1724H169.46V42.8551H168.606C168.434 43.1458 168.25 43.4379 168.051 43.7285C167.909 43.9035 167.767 44.0785 167.625 44.252C167.482 44.427 167.34 44.5864 167.198 44.7318C167.084 44.8489 166.964 44.9575 166.835 45.0591C166.707 45.1621 166.572 45.2552 166.43 45.3427C166.315 45.4598 166.195 45.5614 166.067 45.6489C165.939 45.7364 165.803 45.8098 165.661 45.8676C165.519 45.9269 165.42 45.9706 165.362 45.9988C165.304 46.0285 165.205 46.0722 165.062 46.1301C164.948 46.1597 164.856 46.1879 164.785 46.2175C164.713 46.2458 164.621 46.2754 164.508 46.305C164.28 46.3629 164.039 46.4066 163.782 46.4363C163.639 46.4645 163.49 46.48 163.334 46.48H162.843C162.473 46.48 162.117 46.4588 161.776 46.4151C161.434 46.3713 161.107 46.2909 160.794 46.1752C160.509 46.0877 160.232 45.9861 159.962 45.869C159.691 45.7533 159.428 45.6221 159.173 45.4768C158.832 45.2736 158.517 45.0478 158.233 44.7995C157.947 44.5526 157.678 44.2831 157.422 43.9924C157.023 43.5268 156.66 43.0245 156.333 42.4869C156.006 41.9493 155.729 41.3595 155.501 40.7189C155.416 40.4282 155.352 40.2166 155.309 40.0854C155.267 39.9541 155.203 39.7439 155.118 39.4518C155.06 39.1315 155.017 38.8987 154.989 38.7534C154.96 38.608 154.918 38.3893 154.861 38.0987C154.832 37.8659 154.803 37.633 154.775 37.4002C154.746 37.1674 154.717 36.9346 154.69 36.7018C154.661 36.469 154.64 36.222 154.626 35.9596C154.611 35.6972 154.606 35.4361 154.606 35.1737C154.606 34.8237 154.613 34.4752 154.626 34.1253H154.625ZM166.172 41.2621C166.571 41.1605 166.94 41.0081 167.281 40.8036C167.48 40.6879 167.672 40.5496 167.858 40.3887C168.043 40.2293 168.205 40.0473 168.349 39.8427C168.52 39.6395 168.669 39.4067 168.797 39.1442C168.926 38.8818 169.032 38.6066 169.117 38.3146C169.231 37.9068 169.316 37.4849 169.374 37.0489C169.431 36.6129 169.46 36.1473 169.46 35.652V34.6036C169.487 34.0802 169.46 33.5708 169.374 33.0755C169.289 32.5803 169.16 32.1302 168.991 31.7224C168.876 31.4317 168.741 31.1707 168.585 30.9365C168.428 30.7036 168.25 30.4849 168.051 30.2817C167.738 29.9615 167.382 29.7145 166.984 29.5396C166.671 29.3942 166.344 29.2856 166.002 29.2122C165.661 29.1403 165.304 29.1036 164.936 29.1036C164.509 29.1036 164.11 29.1544 163.741 29.256C163.371 29.359 163.029 29.4958 162.716 29.6708C162.488 29.8161 162.274 29.984 162.075 30.1731C161.877 30.3622 161.692 30.5738 161.521 30.8066C161.377 31.0395 161.243 31.2864 161.115 31.5488C160.987 31.8113 160.881 32.0878 160.795 32.3785C160.681 32.7863 160.588 33.2293 160.518 33.7105C160.446 34.1902 160.412 34.6925 160.412 35.216C160.412 35.7113 160.439 36.191 160.497 36.6566C160.554 37.1223 160.639 37.5738 160.754 38.0098C160.925 38.4754 161.11 38.8973 161.308 39.2754C161.649 39.8582 162.034 40.3097 162.46 40.6286C162.803 40.891 163.179 41.0872 163.592 41.2184C164.004 41.3496 164.453 41.4145 164.937 41.4145C165.363 41.4145 165.776 41.3637 166.175 41.2621H166.172Z" fill="white"/>
<path d="M154.105 34.6253L154.125 34.1056C154.14 33.7471 154.162 33.4064 154.19 33.0779L154.193 33.0514L154.198 33.0252C154.254 32.7345 154.286 32.5421 154.297 32.4349C154.313 32.2826 154.352 32.059 154.407 31.776C154.439 31.5168 154.496 31.2614 154.571 31.0105C154.642 30.7758 154.722 30.5529 154.808 30.3433C154.869 30.1004 154.946 29.8693 155.038 29.6517L155.166 29.3468L155.294 29.0408L155.299 29.0286L155.299 29.0287C155.479 28.6324 155.68 28.2501 155.905 27.8819C156.125 27.5226 156.351 27.1798 156.587 26.8481L156.593 26.8387L156.6 26.8297C156.839 26.5251 157.092 26.2348 157.362 25.9588C157.631 25.6835 157.914 25.4238 158.215 25.1786L158.226 25.1695L158.238 25.1609C158.746 24.7936 159.283 24.474 159.85 24.1992L159.862 24.1934L159.874 24.1882C160.388 23.9718 160.92 23.8097 161.464 23.7003L161.465 23.7C162.008 23.5922 162.554 23.5381 163.099 23.5381C163.402 23.5381 163.69 23.5546 163.965 23.5848L163.968 23.5851L163.968 23.5851C164.238 23.6163 164.495 23.6623 164.741 23.7238C164.932 23.758 165.121 23.8072 165.308 23.8706L165.312 23.8718L165.312 23.8718C165.439 23.9158 165.565 23.9588 165.692 24.0021C165.735 24.0167 165.778 24.0313 165.821 24.046L165.836 24.051L165.85 24.0569C166.147 24.1793 166.428 24.3096 166.688 24.451C166.958 24.598 167.208 24.77 167.437 24.969C167.78 25.2572 168.084 25.5843 168.349 25.9508C168.547 26.2249 168.731 26.5126 168.902 26.813H168.96V24.3443V23.8443H169.46H175.265H175.765V24.3443V46.1724V46.6724H175.265H169.46H168.96V46.1724V43.3551H168.888C168.754 43.5737 168.613 43.7926 168.464 44.0107L168.452 44.0277L168.439 44.0438C168.297 44.2184 168.155 44.3939 168.012 44.5681C167.861 44.754 167.709 44.9247 167.556 45.0813C167.427 45.2126 167.292 45.3351 167.147 45.4501C167.016 45.555 166.881 45.6494 166.743 45.7366C166.62 45.8576 166.489 45.9661 166.349 46.062C166.193 46.168 166.028 46.2582 165.852 46.3299C165.716 46.3867 165.629 46.4249 165.584 46.4466C165.506 46.4863 165.391 46.536 165.251 46.5932L165.22 46.6058L165.188 46.6141C165.08 46.6421 165.015 46.6631 164.979 46.6784L164.968 46.683L164.968 46.6828C164.873 46.7203 164.761 46.7557 164.635 46.7887L164.631 46.7896C164.386 46.852 164.128 46.8988 163.859 46.9307C163.691 46.9625 163.516 46.98 163.334 46.98H162.843C162.454 46.98 162.077 46.9578 161.713 46.9111L154.105 34.6253ZM154.105 34.6253H154.111M154.105 34.6253H154.111M154.111 34.6253C154.108 34.808 154.106 34.9906 154.106 35.1737C154.106 35.4426 154.111 35.7132 154.127 35.9872L154.111 34.6253ZM159.962 45.869L159.763 46.3279C159.763 46.328 159.764 46.3281 159.764 46.3282C159.764 46.3284 159.765 46.3286 159.765 46.3287L159.962 45.869ZM159.962 45.869C159.691 45.7533 159.428 45.6221 159.173 45.4768C158.832 45.2736 158.517 45.0478 158.233 44.7995C157.947 44.5526 157.678 44.2831 157.422 43.9924M159.962 45.869C160.232 45.9861 160.509 46.0877 160.794 46.1752M157.422 43.9924L160.794 46.1752M157.422 43.9924C157.023 43.5268 156.66 43.0245 156.333 42.4869C156.006 41.9493 155.729 41.3595 155.501 40.7189C155.416 40.4282 155.352 40.2166 155.309 40.0854C155.267 39.9541 155.203 39.7439 155.118 39.4518M157.422 43.9924L155.118 39.4518M160.794 46.1752L160.62 46.6442C160.625 46.6459 160.629 46.6475 160.634 46.6491C160.638 46.6504 160.642 46.6518 160.647 46.6531L160.794 46.1752ZM155.118 39.4518C155.06 39.1315 155.017 38.8987 154.989 38.7534M155.118 39.4518L154.989 38.7534M154.989 38.7534C154.96 38.608 154.918 38.3893 154.861 38.0987L154.989 38.7534ZM166.048 40.7776L166.048 40.7783C165.692 40.8688 165.322 40.9145 164.937 40.9145C164.498 40.9145 164.101 40.8557 163.743 40.7419C163.385 40.6281 163.061 40.4588 162.765 40.2319L162.765 40.2318L162.76 40.2282C162.401 39.9599 162.06 39.5674 161.746 39.0328C161.564 38.6854 161.392 38.2948 161.231 37.8598C161.126 37.4537 161.046 37.0322 160.993 36.5963L160.993 36.5949C160.938 36.1517 160.912 35.6927 160.912 35.216C160.912 34.7144 160.945 34.2369 161.012 33.7844L161.012 33.7828C161.08 33.3213 161.168 32.9005 161.276 32.5167C161.354 32.2524 161.45 32.0032 161.564 31.7684C161.684 31.5247 161.806 31.2981 161.936 31.0864C162.087 30.8822 162.249 30.6984 162.42 30.5353C162.592 30.3714 162.777 30.2261 162.972 30.1002C163.243 29.9502 163.543 29.83 163.874 29.7379C164.196 29.6495 164.549 29.6036 164.936 29.6036C165.271 29.6036 165.593 29.6369 165.898 29.7013C166.204 29.767 166.496 29.864 166.774 29.9931L166.774 29.9932L166.783 29.9972C167.121 30.1459 167.424 30.3557 167.693 30.6313C167.871 30.8125 168.029 31.0074 168.17 31.2149C168.304 31.4169 168.423 31.6457 168.525 31.9057L168.525 31.9057L168.529 31.9145C168.683 32.2842 168.801 32.6979 168.881 33.1606C168.96 33.6167 168.986 34.0886 168.96 34.5773L168.96 34.5905V34.6036V35.652C168.96 36.1277 168.932 36.5715 168.878 36.984C168.823 37.3964 168.743 37.7941 168.637 38.1774C168.559 38.442 168.463 38.6895 168.348 38.9246C168.236 39.1546 168.108 39.3522 167.966 39.5206L167.952 39.5375L167.94 39.5556C167.818 39.7283 167.683 39.8791 167.531 40.0101L167.531 40.0103C167.366 40.1528 167.199 40.2726 167.029 40.3715L167.029 40.3714L167.024 40.3749C166.727 40.5533 166.402 40.6875 166.048 40.7776Z" stroke="black"/>
</g>
<g filter="url(#filter8_d_655_11335)">
<path d="M177.687 29.1244C177.687 26.3828 179.901 24.1182 182.582 24.1182C185.263 24.1182 187.501 26.3828 187.501 29.1244C187.501 31.8659 185.286 34.1786 182.582 34.1786C179.878 34.1786 177.687 31.9139 177.687 29.1244ZM182.582 32.9383C184.61 32.9383 186.288 31.2225 186.288 29.1244C186.288 27.0262 184.61 25.3584 182.582 25.3584C180.554 25.3584 178.9 27.0742 178.9 29.1244C178.9 31.1746 180.577 32.9383 182.582 32.9383ZM181.044 26.8597H182.815C183.84 26.8597 184.307 27.4792 184.307 28.1466C184.307 28.742 183.887 29.3149 183.211 29.3149V29.4574C183.468 29.6479 183.748 30.1008 184.469 31.1971L184.585 31.3636H183.257L182.3 29.7664H182.161V31.3636H181.042V26.8583L181.044 26.8597ZM182.674 28.766C182.954 28.766 183.117 28.5515 183.117 28.361C183.117 28.1466 182.978 27.9321 182.698 27.9321H182.139V28.766H182.676H182.674Z" fill="white"/>
<path d="M182.661 31.3636V31.3423L182.828 31.6204L182.973 31.8636H183.257H184.375C183.859 32.2264 183.24 32.4383 182.582 32.4383C181.941 32.4383 181.334 32.2249 180.825 31.8636H181.042H182.161H182.661V31.3636ZM179.4 29.1244C179.4 28.1302 179.846 27.2313 180.542 26.6294V26.8583V31.3636V31.6387C179.85 31.0248 179.4 30.1162 179.4 29.1244ZM181.125 26.2278C181.563 25.9922 182.059 25.8584 182.582 25.8584C184.33 25.8584 185.788 27.298 185.788 29.1244C185.788 29.9088 185.52 30.6282 185.077 31.1948L184.996 31.078L184.883 30.9168C184.804 30.7958 184.729 30.6819 184.659 30.5749C184.417 30.2058 184.228 29.9184 184.075 29.7004C184.052 29.6676 184.029 29.6356 184.007 29.6044C184.524 29.299 184.807 28.7081 184.807 28.1466C184.807 27.6964 184.648 27.2392 184.294 26.8946C183.938 26.548 183.431 26.3597 182.815 26.3597H181.254L181.125 26.2278ZM182.582 23.6182C179.615 23.6182 177.187 26.1173 177.187 29.1244C177.187 32.1747 179.586 34.6786 182.582 34.6786C185.577 34.6786 188.001 32.1268 188.001 29.1244C188.001 26.1142 185.546 23.6182 182.582 23.6182Z" stroke="black"/>
</g>
<defs>
<filter id="filter0_d_655_11335" x="27.4993" y="16.7969" width="22.49" height="32.687" filterUnits="userSpaceOnUse" color-interpolation-filters="sRGB">
<feFlood flood-opacity="0" result="BackgroundImageFix"/>
<feColorMatrix in="SourceAlpha" type="matrix" values="0 0 0 0 0 0 0 0 0 0 0 0 0 0 0 0 0 0 127 0" result="hardAlpha"/>
<feOffset dy="2"/>
<feComposite in2="hardAlpha" operator="out"/>
<feColorMatrix type="matrix" values="0 0 0 0 0 0 0 0 0 0 0 0 0 0 0 0 0 0 1 0"/>
<feBlend mode="normal" in2="BackgroundImageFix" result="effect1_dropShadow_655_11335"/>
<feBlend mode="normal" in="SourceGraphic" in2="effect1_dropShadow_655_11335" result="shape"/>
</filter>
<filter id="filter1_d_655_11335" x="50.1913" y="23.041" width="22.6583" height="26.4375" filterUnits="userSpaceOnUse" color-interpolation-filters="sRGB">
<feFlood flood-opacity="0" result="BackgroundImageFix"/>
<feColorMatrix in="SourceAlpha" type="matrix" values="0 0 0 0 0 0 0 0 0 0 0 0 0 0 0 0 0 0 127 0" result="hardAlpha"/>
<feOffset dy="2"/>
<feComposite in2="hardAlpha" operator="out"/>
<feColorMatrix type="matrix" values="0 0 0 0 0 0 0 0 0 0 0 0 0 0 0 0 0 0 1 0"/>
<feBlend mode="normal" in2="BackgroundImageFix" result="effect1_dropShadow_655_11335"/>
<feBlend mode="normal" in="SourceGraphic" in2="effect1_dropShadow_655_11335" result="shape"/>
</filter>
<filter id="filter2_d_655_11335" x="73.5938" y="23.0381" width="21.6355" height="26.6963" filterUnits="userSpaceOnUse" color-interpolation-filters="sRGB">
<feFlood flood-opacity="0" result="BackgroundImageFix"/>
<feColorMatrix in="SourceAlpha" type="matrix" values="0 0 0 0 0 0 0 0 0 0 0 0 0 0 0 0 0 0 127 0" result="hardAlpha"/>
<feOffset dy="2"/>
<feComposite in2="hardAlpha" operator="out"/>
<feColorMatrix type="matrix" values="0 0 0 0 0 0 0 0 0 0 0 0 0 0 0 0 0 0 1 0"/>
<feBlend mode="normal" in2="BackgroundImageFix" result="effect1_dropShadow_655_11335"/>
<feBlend mode="normal" in="SourceGraphic" in2="effect1_dropShadow_655_11335" result="shape"/>
</filter>
<filter id="filter3_d_655_11335" x="94.6716" y="20.21" width="14.4215" height="28.9639" filterUnits="userSpaceOnUse" color-interpolation-filters="sRGB">
<feFlood flood-opacity="0" result="BackgroundImageFix"/>
<feColorMatrix in="SourceAlpha" type="matrix" values="0 0 0 0 0 0 0 0 0 0 0 0 0 0 0 0 0 0 127 0" result="hardAlpha"/>
<feOffset dy="2"/>
<feComposite in2="hardAlpha" operator="out"/>
<feColorMatrix type="matrix" values="0 0 0 0 0 0 0 0 0 0 0 0 0 0 0 0 0 0 1 0"/>
<feBlend mode="normal" in2="BackgroundImageFix" result="effect1_dropShadow_655_11335"/>
<feBlend mode="normal" in="SourceGraphic" in2="effect1_dropShadow_655_11335" result="shape"/>
</filter>
<filter id="filter4_d_655_11335" x="108.403" y="23.0391" width="21.0577" height="26.4375" filterUnits="userSpaceOnUse" color-interpolation-filters="sRGB">
<feFlood flood-opacity="0" result="BackgroundImageFix"/>
<feColorMatrix in="SourceAlpha" type="matrix" values="0 0 0 0 0 0 0 0 0 0 0 0 0 0 0 0 0 0 127 0" result="hardAlpha"/>
<feOffset dy="2"/>
<feComposite in2="hardAlpha" operator="out"/>
<feColorMatrix type="matrix" values="0 0 0 0 0 0 0 0 0 0 0 0 0 0 0 0 0 0 1 0"/>
<feBlend mode="normal" in2="BackgroundImageFix" result="effect1_dropShadow_655_11335"/>
<feBlend mode="normal" in="SourceGraphic" in2="effect1_dropShadow_655_11335" result="shape"/>
</filter>
<filter id="filter5_d_655_11335" x="130.511" y="23.0859" width="15.0616" height="26.0894" filterUnits="userSpaceOnUse" color-interpolation-filters="sRGB">
<feFlood flood-opacity="0" result="BackgroundImageFix"/>
<feColorMatrix in="SourceAlpha" type="matrix" values="0 0 0 0 0 0 0 0 0 0 0 0 0 0 0 0 0 0 127 0" result="hardAlpha"/>
<feOffset dy="2"/>
<feComposite in2="hardAlpha" operator="out"/>
<feColorMatrix type="matrix" values="0 0 0 0 0 0 0 0 0 0 0 0 0 0 0 0 0 0 1 0"/>
<feBlend mode="normal" in2="BackgroundImageFix" result="effect1_dropShadow_655_11335"/>
<feBlend mode="normal" in="SourceGraphic" in2="effect1_dropShadow_655_11335" result="shape"/>
</filter>
<filter id="filter6_d_655_11335" x="144.189" y="13.4756" width="9.38416" height="35.6982" filterUnits="userSpaceOnUse" color-interpolation-filters="sRGB">
<feFlood flood-opacity="0" result="BackgroundImageFix"/>
<feColorMatrix in="SourceAlpha" type="matrix" values="0 0 0 0 0 0 0 0 0 0 0 0 0 0 0 0 0 0 127 0" result="hardAlpha"/>
<feOffset dy="2"/>
<feComposite in2="hardAlpha" operator="out"/>
<feColorMatrix type="matrix" values="0 0 0 0 0 0 0 0 0 0 0 0 0 0 0 0 0 0 1 0"/>
<feBlend mode="normal" in2="BackgroundImageFix" result="effect1_dropShadow_655_11335"/>
<feBlend mode="normal" in="SourceGraphic" in2="effect1_dropShadow_655_11335" result="shape"/>
</filter>
<filter id="filter7_d_655_11335" x="153.585" y="23.0381" width="22.6805" height="26.4419" filterUnits="userSpaceOnUse" color-interpolation-filters="sRGB">
<feFlood flood-opacity="0" result="BackgroundImageFix"/>
<feColorMatrix in="SourceAlpha" type="matrix" values="0 0 0 0 0 0 0 0 0 0 0 0 0 0 0 0 0 0 127 0" result="hardAlpha"/>
<feOffset dy="2"/>
<feComposite in2="hardAlpha" operator="out"/>
<feColorMatrix type="matrix" values="0 0 0 0 0 0 0 0 0 0 0 0 0 0 0 0 0 0 1 0"/>
<feBlend mode="normal" in2="BackgroundImageFix" result="effect1_dropShadow_655_11335"/>
<feBlend mode="normal" in="SourceGraphic" in2="effect1_dropShadow_655_11335" result="shape"/>
</filter>
<filter id="filter8_d_655_11335" x="176.687" y="23.1182" width="11.8138" height="14.0605" filterUnits="userSpaceOnUse" color-interpolation-filters="sRGB">
<feFlood flood-opacity="0" result="BackgroundImageFix"/>
<feColorMatrix in="SourceAlpha" type="matrix" values="0 0 0 0 0 0 0 0 0 0 0 0 0 0 0 0 0 0 127 0" result="hardAlpha"/>
<feOffset dy="2"/>
<feComposite in2="hardAlpha" operator="out"/>
<feColorMatrix type="matrix" values="0 0 0 0 0 0 0 0 0 0 0 0 0 0 0 0 0 0 1 0"/>
<feBlend mode="normal" in2="BackgroundImageFix" result="effect1_dropShadow_655_11335"/>
<feBlend mode="normal" in="SourceGraphic" in2="effect1_dropShadow_655_11335" result="shape"/>
</filter>
<clipPath id="clip0_655_11335">
<rect width="213" height="69" fill="white"/>
</clipPath>
</defs>
</svg>
