<svg width="213" height="69" viewBox="0 0 213 69" fill="none" xmlns="http://www.w3.org/2000/svg">
<g id="hoover" clip-path="url(#clip0_655_11341)">
<path id="Vector" d="M106.498 0L120.97 6.54671L141.198 1.88127L148.344 9.60142L172.137 7.32376L171.183 15.3805L195.962 15.736L187.014 23.258L210.093 26.2089L194.119 32.3749L213 37.6035L191.73 41.753L204.364 48.6898L180.103 50.3666L185.121 58.2629L160.501 57.2877L157.36 65.2846L135.048 61.7643L124.089 69L106.498 63.3153L88.9114 69L77.9519 61.7643L55.6367 65.2846L52.4991 57.2877L27.876 58.2629L32.8973 50.3666L8.63602 48.6898L21.2704 41.753L0 37.6035L18.8814 32.3749L2.90362 26.2089L25.986 23.258L17.035 15.736L41.8141 15.3805L40.8628 7.32376L64.6532 9.60142L71.8015 1.88127L92.0271 6.54671L106.498 0Z" fill="#C8FF00"/>
</g>
<defs>
<clipPath id="clip0_655_11341">
<rect width="213" height="69" fill="white"/>
</clipPath>
</defs>
</svg>
