<?xml version="1.0" encoding="UTF-8"?>
<svg id="Layer_1" xmlns="http://www.w3.org/2000/svg" version="1.1" viewBox="0 0 176.51 150">
  <!-- Generator: Adobe Illustrator 29.0.0, SVG Export Plug-In . SVG Version: 2.1.0 Build 186)  -->
  <defs>
    <style>
      .st0 {
        fill: #ff4e00;
      }
    </style>
  </defs>
  <path class="st0" d="M158.15,65.56l-3.06-.27,2.64-1.05c10.79-4.3,5.95-20.49-5.42-18.18l-3.76.77,1.33-1.08c9.24-7.49-.36-21.88-10.83-16.22l-2.94,1.59.22-.34c6.66-10.35-7.35-21.44-15.9-12.57l-1.45,1.5.71-2.92c2.88-11.91-13.85-17.83-19.1-6.76l-1.74,3.67-.46-4.37c-1.27-12.16-18.98-12.16-20.26,0l-.46,4.37-1.74-3.67c-5.25-11.07-21.98-5.15-19.1,6.76l.71,2.92-1.45-1.5c-8.54-8.86-22.55,2.22-15.9,12.57l.22.34-2.94-1.59c-10.47-5.66-20.07,8.73-10.83,16.22l1.33,1.08-3.76-.77c-11.38-2.32-16.21,13.88-5.42,18.18l2.64,1.05-3.06.27c-11.53,1.01-11.53,17.86,0,18.88l3.06.27-2.64,1.05c-10.79,4.3-5.95,20.49,5.42,18.18l3.76-.77-1.33,1.08c-9.24,7.49.36,21.88,10.83,16.22l2.94-1.59-.22.34c-6.66,10.35,7.35,21.44,15.9,12.57l1.45-1.5-.71,2.92c-2.88,11.91,13.85,17.83,19.1,6.76l1.74-3.67.46,4.37c1.27,12.16,18.98,12.16,20.26,0l.46-4.37,1.74,3.67c5.25,11.07,21.98,5.15,19.1-6.76l-.71-2.92,1.45,1.5c8.54,8.86,22.55-2.22,15.9-12.57l-.22-.34,2.94,1.59c10.47,5.66,20.07-8.73,10.83-16.22l-1.33-1.08,3.76.77c11.38,2.32,16.21-13.88,5.42-18.18l-2.64-1.05,3.06-.27c11.52-1.01,11.52-17.86,0-18.88Z"/>
</svg>