<?xml version="1.0" encoding="UTF-8"?>
<svg id="Layer_1" xmlns="http://www.w3.org/2000/svg" version="1.1" viewBox="0 0 176.51 150">
  <!-- Generator: Adobe Illustrator 29.0.0, SVG Export Plug-In . SVG Version: 2.1.0 Build 186)  -->
  <defs>
    <style>
      .st0 {
        fill: #0ab31b;
      }
    </style>
  </defs>
  <path class="st0" d="M162.06,61.96l-20.7-7.19c-6.47-2.25-10.32-8.91-9.03-15.64l4.12-21.52c2.46-12.86-12.68-21.6-22.59-13.04l-16.58,14.33c-5.18,4.48-12.87,4.48-18.06,0l-16.58-14.33c-9.9-8.56-25.05.18-22.59,13.04l4.12,21.52c1.29,6.73-2.55,13.39-9.03,15.64l-20.7,7.19c-12.37,4.3-12.37,21.79,0,26.08l20.7,7.19c6.47,2.25,10.32,8.91,9.03,15.64l-4.12,21.52c-2.46,12.86,12.68,21.6,22.59,13.04l16.58-14.33c5.18-4.48,12.87-4.48,18.06,0l16.58,14.33c9.9,8.56,25.05-.18,22.59-13.04l-4.12-21.52c-1.29-6.73,2.55-13.39,9.03-15.64l20.7-7.19c12.37-4.3,12.37-21.79,0-26.08Z"/>
</svg>