<?xml version="1.0" encoding="UTF-8"?>
<svg id="Layer_1" xmlns="http://www.w3.org/2000/svg" version="1.1" viewBox="0 0 176.51 150">
  <!-- Generator: Adobe Illustrator 29.0.0, SVG Export Plug-In . SVG Version: 2.1.0 Build 186)  -->
  <defs>
    <style>
      .st0 {
        fill: #ff6cee;
      }
    </style>
  </defs>
  <path class="st0" d="M104.83,5.81l7.59-5.16c2.02-1.38,4.86-.47,5.62,1.79l2.14,6.4c3.86,11.52,14.25,19.12,25.78,18.86l10.79-.24c2.61-.06,4.45,2.43,3.52,4.77l-.73,1.83c-5.24,13.17-.41,28.41,11.28,35.54l3.99,2.44c2.26,1.38,2.26,4.55,0,5.93l-3.99,2.44c-11.69,7.14-16.53,22.38-11.28,35.54l.73,1.83c.93,2.34-.91,4.83-3.52,4.77l-10.79-.24c-11.54-.26-21.93,7.34-25.78,18.86l-2.14,6.4c-.76,2.26-3.59,3.17-5.62,1.79l-7.59-5.16c-9.93-6.75-23.22-6.75-33.15,0l-7.59,5.16c-2.02,1.38-4.86.47-5.62-1.79l-2.14-6.4c-3.86-11.52-14.25-19.12-25.78-18.86l-10.79.24c-2.61.06-4.45-2.43-3.52-4.77l.73-1.83c5.24-13.17.41-28.41-11.28-35.54l-3.99-2.44c-2.26-1.38-2.26-4.55,0-5.93l3.99-2.44c11.69-7.14,16.53-22.38,11.28-35.54l-.73-1.83c-.93-2.34.91-4.83,3.52-4.77l10.79.24c11.54.26,21.93-7.34,25.78-18.86l2.14-6.4c.76-2.26,3.59-3.17,5.62-1.79l7.59,5.16c9.93,6.75,23.22,6.75,33.15,0Z"/>
</svg>